<svg width="142" height="151" viewBox="0 0 142 151" fill="none" xmlns="http://www.w3.org/2000/svg">
<rect x="20.3864" y="34.876" width="75" height="90" rx="4" fill="#3184FF"/>
<g filter="url(#filter0_bd_42_34)">
<rect width="75" height="90" rx="4" transform="matrix(0.939693 0.34202 -0.342754 0.939425 50.8479 20.7761)" fill="white" fill-opacity="0.8" shape-rendering="crispEdges"/>
</g>
<g clip-path="url(#clip0_42_34)">
<path d="M45.1339 99.0372C46.5242 95.2174 52.3999 90.6686 63.3188 94.6427C74.2377 98.6169 75.8148 105.878 74.4245 109.698L72.3349 115.439L43.0444 104.778L45.1339 99.0372Z" fill="#FFD11C" stroke="#171717" stroke-width="0.5"/>
<path d="M75.5271 86.4129C73.7668 91.2492 68.6929 93.8108 64.2148 92.1809C59.7368 90.551 57.4965 85.3273 59.2567 80.491C61.017 75.6547 66.091 73.0931 70.569 74.723C75.047 76.3529 77.2874 81.5766 75.5271 86.4129Z" fill="#FFD11C" stroke="#171717" stroke-width="0.5"/>
</g>
<g clip-path="url(#clip1_42_34)">
<path d="M75.6249 55.3408C75.8677 55.4292 76.0652 55.6116 76.1737 55.8478C76.2822 56.084 76.293 56.3548 76.2035 56.6004C76.1141 56.8461 75.9319 57.0466 75.6969 57.1578C75.4619 57.269 75.1934 57.2818 74.9505 57.1934C74.7076 57.105 74.5102 56.9226 74.4017 56.6864C74.2932 56.4502 74.2824 56.1794 74.3718 55.9338C74.4613 55.6881 74.6435 55.4876 74.8785 55.3764C75.1135 55.2652 75.382 55.2524 75.6249 55.3408V55.3408ZM78.2557 48.1125C79.7665 48.6623 80.5147 50.3546 79.9191 51.9909C79.603 52.8594 79.1157 53.2225 78.1428 53.5566L77.6209 53.7275C77.1558 53.8838 76.977 53.9967 76.8722 54.207L76.772 54.4323C76.673 54.6026 76.5147 54.7299 76.3282 54.7891C76.1417 54.8482 75.9405 54.8349 75.7642 54.7518C75.588 54.6687 75.4495 54.5218 75.3759 54.3401C75.3024 54.1583 75.2991 53.9549 75.3669 53.7698C75.6744 52.925 76.1515 52.5716 77.1109 52.2427L77.6342 52.0723C78.1803 51.8851 78.3463 51.7575 78.4552 51.4581C78.7562 50.631 78.4079 49.8463 77.7163 49.5946C76.9924 49.3311 76.2601 49.6789 75.9566 50.5402C75.887 50.7375 75.7428 50.8993 75.5556 50.9902C75.463 51.0352 75.3626 51.0614 75.2602 51.0673C75.1578 51.0732 75.0554 51.0588 74.9588 51.0247C74.7638 50.9559 74.6044 50.8116 74.5157 50.6235C74.427 50.4355 74.4162 50.219 74.4858 50.0217C75.0836 48.3292 76.72 47.5535 78.2557 48.1125V48.1125ZM69.3122 49.8876C69.8965 48.2843 70.9792 46.9115 72.3978 45.9755C73.8164 45.0395 75.4944 44.5907 77.1798 44.6965C78.8652 44.8024 80.4671 45.4571 81.7451 46.5625C83.023 47.6678 83.9079 49.1641 84.267 50.8268C84.6262 52.4894 84.4401 54.2286 83.7368 55.7834C83.0335 57.3381 81.8509 58.6244 80.3665 59.4492C78.8821 60.274 77.176 60.5928 75.5044 60.3577C73.8329 60.1226 72.2859 59.3463 71.0959 58.1453L67.4967 57.6024C67.3698 57.5832 67.2499 57.5326 67.1474 57.4553C67.045 57.3779 66.9632 57.2762 66.9093 57.159C66.8555 57.0418 66.8312 56.9127 66.8387 56.7834C66.8462 56.654 66.8852 56.5283 66.9522 56.4173L68.8567 53.2684C68.7614 52.1233 68.917 50.9691 69.3122 49.8876V49.8876ZM78.7968 46.6259C77.7936 46.2605 76.7123 46.1616 75.6565 46.3388C74.6006 46.516 73.6055 46.9633 72.7665 47.6378C71.9275 48.3124 71.2726 49.1917 70.8645 50.1915C70.4564 51.1913 70.3088 52.2782 70.4358 53.348C70.4568 53.5243 70.4181 53.7031 70.3258 53.8552L68.8945 56.2195L71.599 56.6265C71.7731 56.6525 71.9329 56.7373 72.0524 56.867C72.6937 57.5612 73.4838 58.0985 74.3632 58.4386C75.2426 58.7787 76.1884 58.9127 77.1296 58.8305C78.0708 58.7483 78.9828 58.4521 79.7971 57.9641C80.6114 57.4761 81.3068 56.809 81.831 56.0131C82.3551 55.2171 82.6945 54.313 82.8235 53.3686C82.9525 52.4242 82.8678 51.4642 82.5758 50.5607C82.2837 49.6572 81.792 48.8337 81.1374 48.1522C80.4829 47.4706 79.6826 46.9488 78.7968 46.6259ZM71.7901 60.679C72.7044 62.2181 74.118 63.3892 75.7936 63.9959C76.8985 64.3981 78.0377 64.5324 79.1418 64.4307L82.2495 66.3289C82.359 66.3957 82.4834 66.4341 82.6116 66.4407C82.7398 66.4473 82.8678 66.4219 82.9844 66.3667C83.101 66.3116 83.2025 66.2283 83.2799 66.1244C83.3574 66.0205 83.4083 65.8991 83.4283 65.771L83.9929 62.1362C84.7794 61.3432 85.4109 60.3696 85.8176 59.252C86.4363 57.5597 86.4609 55.7084 85.8873 54.0087C85.6968 55.182 85.29 56.3103 84.6881 57.3354C84.5011 58.8053 83.809 60.1661 82.7326 61.1807C82.6032 61.3022 82.518 61.464 82.4908 61.6398L82.0676 64.3711L79.7328 62.9439C79.583 62.8524 79.4066 62.8149 79.2323 62.8372C77.774 63.0228 76.3013 62.6858 75.0716 61.8852C73.9112 61.6941 72.7981 61.285 71.7901 60.679V60.679Z" fill="#171717"/>
</g>
<defs>
<filter id="filter0_bd_42_34" x="0.0750561" y="0.849165" width="141.175" height="150.054" filterUnits="userSpaceOnUse" color-interpolation-filters="sRGB">
<feFlood flood-opacity="0" result="BackgroundImageFix"/>
<feGaussianBlur in="BackgroundImage" stdDeviation="10.5263"/>
<feComposite in2="SourceAlpha" operator="in" result="effect1_backgroundBlur_42_34"/>
<feColorMatrix in="SourceAlpha" type="matrix" values="0 0 0 0 0 0 0 0 0 0 0 0 0 0 0 0 0 0 127 0" result="hardAlpha"/>
<feOffset/>
<feGaussianBlur stdDeviation="10.5263"/>
<feComposite in2="hardAlpha" operator="out"/>
<feColorMatrix type="matrix" values="0 0 0 0 0.27451 0 0 0 0 0.596078 0 0 0 0 0.972549 0 0 0 0.2 0"/>
<feBlend mode="normal" in2="effect1_backgroundBlur_42_34" result="effect2_dropShadow_42_34"/>
<feBlend mode="normal" in="SourceGraphic" in2="effect2_dropShadow_42_34" result="shape"/>
</filter>
<clipPath id="clip0_42_34">
<rect width="39.5879" height="42.3963" fill="white" transform="translate(52.7793 65.7262) rotate(20)"/>
</clipPath>
<clipPath id="clip1_42_34">
<rect width="24.9504" height="25.2359" fill="white" transform="translate(70.1577 38.4461) rotate(20)"/>
</clipPath>
</defs>
</svg>
