<svg width="21" height="18" viewBox="0 0 21 18" fill="none" xmlns="http://www.w3.org/2000/svg">
<path d="M0.132847 6.68598C0.806613 9.35404 1 10 1.84003 10.89L7.84003 16.94C8.40253 17.5018 9.205 18 10 18C10.795 18 11.5175 17.5018 12.08 16.94L18.08 10.89C18.671 10.3126 19.1218 10 19.606 8.8642C19.93 8.10423 19.9606 7.28772 19.9681 6.4616C20.5 6.99999 3.9456 6.17108 0.132847 6.68598Z" fill="#FFD11C"/>
<path d="M18.3 1.99997C17.2337 0.944674 15.8254 0.305241 14.3291 0.197052C12.8328 0.0888634 11.3471 0.519043 10.14 1.40997C8.8677 0.463607 7.28404 0.0344814 5.70797 0.209007C4.13189 0.383534 2.68049 1.14875 1.64602 2.35055C0.611553 3.55236 0.0708684 5.10149 0.132847 6.68598C0.188358 8.10513 1.17522 10 1.17522 10H18.954C18.954 10 19.282 9.62417 19.606 8.8642C19.93 8.10423 20.1006 7.28772 20.1081 6.4616C20.1155 5.63548 19.9596 4.81603 19.6493 4.05035C19.339 3.28467 18.8805 2.58786 18.3 1.99997Z" fill="#3184FF"/>
</svg>
