<svg width="46" height="46" viewBox="0 0 46 46" fill="none" xmlns="http://www.w3.org/2000/svg">
<path d="M24.6598 5.75L42.918 37.375C43.0862 37.6664 43.1748 37.9969 43.1748 38.3333C43.1748 38.6698 43.0862 39.0003 42.918 39.2916C42.7498 39.583 42.5078 39.825 42.2165 39.9932C41.9251 40.1614 41.5946 40.25 41.2581 40.25H4.74181C4.40537 40.25 4.07486 40.1614 3.7835 39.9932C3.49213 39.825 3.25018 39.583 3.08197 39.2916C2.91375 39.0003 2.82519 38.6698 2.8252 38.3333C2.8252 37.9969 2.91376 37.6664 3.08198 37.375L21.3401 5.75C21.5084 5.45865 21.7503 5.21671 22.0417 5.04851C22.333 4.8803 22.6635 4.79175 23 4.79175C23.3364 4.79175 23.6669 4.8803 23.9583 5.04851C24.2496 5.21671 24.4916 5.45865 24.6598 5.75V5.75ZM8.06148 36.4167H37.9385L23 10.5417L8.06148 36.4167V36.4167ZM21.0833 30.6667H24.9166V34.5H21.0833V30.6667ZM21.0833 17.25H24.9166V26.8333H21.0833V17.25Z" fill="#FFD11C"/>
</svg>
