<svg width="46" height="46" viewBox="0 0 46 46" fill="none" xmlns="http://www.w3.org/2000/svg">
<path d="M32.5837 29.2196V42.3909C32.5837 42.5605 32.5387 42.727 32.4534 42.8735C32.368 43.02 32.2453 43.1413 32.0978 43.2249C31.9503 43.3085 31.7832 43.3514 31.6137 43.3494C31.4442 43.3473 31.2782 43.3003 31.1327 43.2132L23.0003 38.3333L14.8679 43.2132C14.7223 43.3004 14.5562 43.3474 14.3865 43.3494C14.2168 43.3513 14.0496 43.3082 13.902 43.2244C13.7544 43.1406 13.6318 43.019 13.5465 42.8723C13.4613 42.7255 13.4166 42.5587 13.417 42.389V29.2215C10.9371 27.236 9.13514 24.5293 8.26012 21.4754C7.3851 18.4214 7.48022 15.1712 8.53235 12.1736C9.58448 9.17614 11.5417 6.57942 14.1334 4.74236C16.7252 2.90529 19.8235 1.91858 23.0003 1.91858C26.1771 1.91858 29.2755 2.90529 31.8672 4.74236C34.459 6.57942 36.4162 9.17614 37.4683 12.1736C38.5204 15.1712 38.6156 18.4214 37.7405 21.4754C36.8655 24.5293 35.0635 27.236 32.5837 29.2215V29.2196ZM17.2503 31.4678V37.3137L23.0003 33.8637L28.7503 37.3137V31.4678C26.9234 32.2067 24.971 32.5855 23.0003 32.5833C21.0297 32.5855 19.0772 32.2067 17.2503 31.4678V31.4678ZM23.0003 28.75C26.0503 28.75 28.9754 27.5384 31.1321 25.3817C33.2887 23.225 34.5003 20.3 34.5003 17.25C34.5003 14.2 33.2887 11.2749 31.1321 9.11826C28.9754 6.9616 26.0503 5.74999 23.0003 5.74999C19.9503 5.74999 17.0253 6.9616 14.8686 9.11826C12.7119 11.2749 11.5003 14.2 11.5003 17.25C11.5003 20.3 12.7119 23.225 14.8686 25.3817C17.0253 27.5384 19.9503 28.75 23.0003 28.75V28.75Z" fill="#3184FF"/>
</svg>
