<svg width="46" height="46" viewBox="0 0 46 46" fill="none" xmlns="http://www.w3.org/2000/svg">
<path d="M5.74967 5.75H40.2497C40.758 5.75 41.2455 5.95193 41.605 6.31138C41.9644 6.67082 42.1663 7.15834 42.1663 7.66667V38.3333C42.1663 38.8417 41.9644 39.3292 41.605 39.6886C41.2455 40.0481 40.758 40.25 40.2497 40.25H5.74967C5.24134 40.25 4.75383 40.0481 4.39439 39.6886C4.03494 39.3292 3.83301 38.8417 3.83301 38.3333V7.66667C3.83301 7.15834 4.03494 6.67082 4.39439 6.31138C4.75383 5.95193 5.24134 5.75 5.74967 5.75V5.75ZM38.333 23H7.66634V36.4167H38.333V23ZM38.333 15.3333V9.58333H7.66634V15.3333H38.333Z" fill="#3184FF"/>
</svg>
