<svg width="46" height="46" viewBox="0 0 46 46" fill="none" xmlns="http://www.w3.org/2000/svg">
<path d="M32.5834 5.75H40.25C40.7584 5.75 41.2459 5.95193 41.6053 6.31138C41.9648 6.67082 42.1667 7.15833 42.1667 7.66667V38.3333C42.1667 38.8417 41.9648 39.3292 41.6053 39.6886C41.2459 40.0481 40.7584 40.25 40.25 40.25H5.75004C5.24171 40.25 4.7542 40.0481 4.39475 39.6886C4.03531 39.3292 3.83337 38.8417 3.83337 38.3333V7.66667C3.83337 7.15833 4.03531 6.67082 4.39475 6.31138C4.7542 5.95193 5.24171 5.75 5.75004 5.75H13.4167V1.91667H17.25V5.75H28.75V1.91667H32.5834V5.75ZM38.3334 17.25V9.58333H32.5834V13.4167H28.75V9.58333H17.25V13.4167H13.4167V9.58333H7.66671V17.25H38.3334ZM38.3334 21.0833H7.66671V36.4167H38.3334V21.0833ZM11.5 24.9167H21.0834V32.5833H11.5V24.9167Z" fill="#3184FF"/>
</svg>
