<svg width="153" height="147" viewBox="0 0 153 147" fill="none" xmlns="http://www.w3.org/2000/svg">
<g filter="url(#filter0_bd_21_114)">
<rect x="22" y="38.8311" width="90" height="75" rx="4" fill="#3184FF"/>
</g>
<g filter="url(#filter1_bd_21_114)">
<rect width="90" height="75.0004" rx="4" transform="matrix(0.939693 0.34202 -0.339124 0.940741 47.4788 25.6622)" fill="white" fill-opacity="0.8" shape-rendering="crispEdges"/>
</g>
<line x1="1.0524" y1="-1.0524" x2="22.357" y2="-1.0524" transform="matrix(0.939693 0.34202 -0.339124 0.940741 51.5993 37.8037)" stroke="#171717" stroke-width="2.10481" stroke-linecap="round"/>
<path d="M54.5529 66.5471L44.9305 63.0448C44.6115 62.9287 44.3591 62.6686 44.229 62.3219C44.0988 61.9752 44.1014 61.5701 44.2364 61.1958L47.2885 52.7291C47.4234 52.3548 47.6795 52.042 48.0005 51.8595C48.3215 51.6769 48.681 51.6396 49 51.7557L58.6225 55.258C58.9415 55.3741 59.1938 55.6341 59.324 55.9809C59.4542 56.3276 59.4515 56.7327 59.3166 57.1069L56.2644 65.5737C56.1295 65.948 55.8734 66.2608 55.5524 66.4433C55.2315 66.6258 54.8719 66.6632 54.5529 66.5471Z" fill="#FFD11C" stroke="#171717" stroke-width="0.526202"/>
<g clip-path="url(#clip0_21_114)">
<path d="M82.365 109.481C80.4958 108.8 78.9712 107.405 78.1265 105.6C77.2818 103.796 77.1862 101.731 77.8607 99.86C78.5353 97.9887 79.9248 96.4644 81.7235 95.6222C83.5222 94.7801 85.5827 94.6892 87.4519 95.3695C88.9827 95.9267 90.2852 96.9754 91.1596 98.3536C90.0511 98.6856 89.0362 99.273 88.1959 100.069C87.3556 100.865 86.7132 101.847 86.3202 102.937C85.9272 104.028 85.7945 105.195 85.9326 106.347C86.0707 107.499 86.4758 108.604 87.1155 109.572C85.5666 110.068 83.8963 110.036 82.365 109.481Z" fill="#FFD11C" stroke="#171717" stroke-width="0.526202"/>
<path d="M94.0027 113.533C92.1335 112.852 90.6089 111.457 89.7642 109.652C88.9194 107.848 88.8239 105.783 89.4984 103.912C90.173 102.041 91.5625 100.516 93.3612 99.6741C95.1599 98.832 97.2204 98.7411 99.0896 99.4214C100.959 100.102 102.483 101.498 103.328 103.302C104.173 105.106 104.268 107.171 103.594 109.042C102.919 110.913 101.53 112.438 99.7311 113.28C97.9324 114.122 95.8718 114.213 94.0027 113.533Z" fill="#FFD11C" stroke="#171717" stroke-width="0.526202"/>
</g>
<defs>
<filter id="filter0_bd_21_114" x="0.951923" y="17.783" width="132.096" height="117.096" filterUnits="userSpaceOnUse" color-interpolation-filters="sRGB">
<feFlood flood-opacity="0" result="BackgroundImageFix"/>
<feGaussianBlur in="BackgroundImage" stdDeviation="10.524"/>
<feComposite in2="SourceAlpha" operator="in" result="effect1_backgroundBlur_21_114"/>
<feColorMatrix in="SourceAlpha" type="matrix" values="0 0 0 0 0 0 0 0 0 0 0 0 0 0 0 0 0 0 127 0" result="hardAlpha"/>
<feOffset/>
<feGaussianBlur stdDeviation="10.524"/>
<feComposite in2="hardAlpha" operator="out"/>
<feColorMatrix type="matrix" values="0 0 0 0 0.27451 0 0 0 0 0.596078 0 0 0 0 0.972549 0 0 0 0.2 0"/>
<feBlend mode="normal" in2="effect1_backgroundBlur_21_114" result="effect2_dropShadow_21_114"/>
<feBlend mode="normal" in="SourceGraphic" in2="effect2_dropShadow_21_114" result="shape"/>
</filter>
<filter id="filter1_bd_21_114" x="2.11444" y="5.74019" width="149.867" height="141.182" filterUnits="userSpaceOnUse" color-interpolation-filters="sRGB">
<feFlood flood-opacity="0" result="BackgroundImageFix"/>
<feGaussianBlur in="BackgroundImage" stdDeviation="10.524"/>
<feComposite in2="SourceAlpha" operator="in" result="effect1_backgroundBlur_21_114"/>
<feColorMatrix in="SourceAlpha" type="matrix" values="0 0 0 0 0 0 0 0 0 0 0 0 0 0 0 0 0 0 127 0" result="hardAlpha"/>
<feOffset/>
<feGaussianBlur stdDeviation="10.524"/>
<feComposite in2="hardAlpha" operator="out"/>
<feColorMatrix type="matrix" values="0 0 0 0 0.27451 0 0 0 0 0.596078 0 0 0 0 0.972549 0 0 0 0.2 0"/>
<feBlend mode="normal" in2="effect1_backgroundBlur_21_114" result="effect2_dropShadow_21_114"/>
<feBlend mode="normal" in="SourceGraphic" in2="effect2_dropShadow_21_114" result="shape"/>
</filter>
<clipPath id="clip0_21_114">
<rect width="29" height="16.0002" fill="white" transform="matrix(0.939693 0.34202 -0.339124 0.940741 79.9872 91.7672)"/>
</clipPath>
</defs>
</svg>
