<svg width="46" height="46" viewBox="0 0 46 46" fill="none" xmlns="http://www.w3.org/2000/svg">
<path d="M3.83302 23C3.83302 12.4142 12.4139 3.83331 22.9997 3.83331C33.5854 3.83331 42.1663 12.4142 42.1663 23C42.1663 33.5857 33.5854 42.1666 22.9997 42.1666H3.83302L9.44694 36.5527C7.66451 34.7749 6.25097 32.6624 5.28755 30.3366C4.32412 28.0107 3.82981 25.5174 3.83302 23V23ZM13.0867 38.3333H22.9997C26.0323 38.3333 28.9969 37.434 31.5184 35.7492C34.04 34.0643 36.0053 31.6696 37.1658 28.8678C38.3264 26.066 38.63 22.983 38.0384 20.0086C37.4468 17.0342 35.9864 14.3021 33.842 12.1577C31.6976 10.0133 28.9654 8.55291 25.9911 7.96127C23.0167 7.36963 19.9337 7.67328 17.1319 8.83383C14.3301 9.99437 11.9353 11.9597 10.2505 14.4812C8.56564 17.0028 7.66636 19.9673 7.66636 23C7.66636 27.1246 9.29744 30.9829 12.1571 33.8426L14.8673 36.5527L13.0867 38.3333V38.3333ZM15.333 24.9166H30.6664C30.6664 26.95 29.8586 28.9 28.4208 30.3378C26.9831 31.7756 25.033 32.5833 22.9997 32.5833C20.9664 32.5833 19.0163 31.7756 17.5785 30.3378C16.1408 28.9 15.333 26.95 15.333 24.9166V24.9166Z" fill="#3184FF"/>
</svg>
