<svg width="46" height="46" viewBox="0 0 46 46" fill="none" xmlns="http://www.w3.org/2000/svg">
<path d="M36.8825 9.1176C38.2122 10.447 39.1958 12.0822 39.7471 13.8798C40.2984 15.6775 40.4007 17.5829 40.045 19.4293C41.1337 19.7359 42.1648 20.3167 43.0235 21.1696C43.663 21.8023 44.1706 22.5556 44.5171 23.3858C44.8636 24.216 45.042 25.1067 45.042 26.0063C45.042 26.9059 44.8636 27.7966 44.5171 28.6268C44.1706 29.457 43.663 30.2103 43.0235 30.843L32.5834 41.2084L26.7912 35.4584L21.0834 41.1796L4.83006 24.9033C2.87002 22.7109 1.82434 19.851 1.90798 16.9114C1.99162 13.9718 3.19823 11.1759 5.27976 9.09859C7.36129 7.02123 10.1596 5.82023 13.0993 5.74249C16.0391 5.66474 18.8969 6.71617 21.0853 8.6806C23.2752 6.72024 26.1328 5.6731 29.0709 5.75438C32.009 5.83565 34.8043 7.03917 36.8825 9.1176V9.1176ZM24.8439 23.8913C24.5634 24.1677 24.3407 24.4971 24.1887 24.8604C24.0366 25.2236 23.9583 25.6135 23.9583 26.0073C23.9583 26.4011 24.0366 26.7909 24.1887 27.1542C24.3407 27.5174 24.5634 27.8469 24.8439 28.1233L32.5834 35.8072L40.3229 28.1233C40.6034 27.8469 40.8261 27.5174 40.9781 27.1542C41.1302 26.7909 41.2085 26.4011 41.2085 26.0073C41.2085 25.6135 41.1302 25.2236 40.9781 24.8604C40.8261 24.4971 40.6034 24.1677 40.3229 23.8913C39.7437 23.3197 38.9624 22.9995 38.1486 23.0002C37.3348 23.0009 36.5541 23.3225 35.9759 23.8951L32.5796 27.2569L29.8828 24.5813L29.1871 23.8913C28.6085 23.3203 27.8283 23.0002 27.0155 23.0002C26.2026 23.0002 25.4225 23.3203 24.8439 23.8913V23.8913ZM7.9964 11.8297C6.62456 13.2015 5.82378 15.0423 5.75549 16.9811C5.6872 18.9199 6.35647 20.8126 7.6284 22.2774L21.0834 35.7535L24.0715 32.7597L22.1433 30.843C21.5038 30.2103 20.9962 29.457 20.6497 28.6268C20.3032 27.7966 20.1249 26.9059 20.1249 26.0063C20.1249 25.1067 20.3032 24.216 20.6497 23.3858C20.9962 22.5556 21.5038 21.8023 22.1433 21.1696C23.4404 19.8868 25.1912 19.1673 27.0155 19.1673C28.8398 19.1673 30.5905 19.8868 31.8877 21.1696L32.5834 21.8596L33.2792 21.1696C34.0937 20.3627 35.0617 19.7992 36.0871 19.4791C36.571 17.8794 36.5191 16.1655 35.9393 14.598C35.3595 13.0306 34.2834 11.6954 32.875 10.7958C31.4665 9.89619 29.8027 9.4813 28.1367 9.61431C26.4708 9.74731 24.8939 10.4209 23.646 11.5326L21.0872 13.8288L18.5266 11.5345C17.0661 10.2286 15.1611 9.53154 13.2027 9.58643C11.2444 9.64133 9.38138 10.444 7.9964 11.8297V11.8297Z" fill="#FFD11C"/>
</svg>
