<?xml version="1.0"?><svg xmlns="http://www.w3.org/2000/svg"  viewBox="0 0 64 64" width="512px" height="512px">    <path d="M 12.568359 4 C 11.440359 4 10.314031 4.3356094 9.3320312 5.0996094 C 7.8320312 6.0996094 7 7.7666094 7 9.5996094 L 7 31 C 7 31.552 7.448 32 8 32 C 8.552 32 9 31.552 9 31 L 9 9.5996094 C 9 8.4086094 9.5263594 7.3746719 10.443359 6.7636719 L 10.503906 6.7226562 L 10.5625 6.6777344 C 11.1395 6.2287344 11.815359 6 12.568359 6 C 12.957359 6 13.357375 6.0608281 13.734375 6.1738281 L 52.486328 18.349609 C 54.577328 19.006609 56 20.945719 56 23.136719 L 56 50.152344 C 56 52.266344 54.2895 53.986328 52.1875 53.986328 C 51.8135 53.986328 51.436359 53.929359 51.068359 53.818359 C 49.248359 53.267359 47.308828 52.673641 45.298828 52.056641 C 44.655828 51.858641 44 52.339719 44 53.011719 C 44 53.450719 44.290937 53.83975 44.710938 53.96875 C 46.719938 54.58675 48.662281 55.179422 50.488281 55.732422 C 51.058281 55.904422 51.6295 55.986328 52.1875 55.986328 C 55.2925 55.986328 58 53.467344 58 50.152344 L 58 23.136719 C 58 20.071719 56.010938 17.360406 53.085938 16.441406 L 14.332031 4.265625 C 13.757031 4.092625 13.163359 4 12.568359 4 z M 46 22 C 45.448 22 45 22.448 45 23 C 45 23.552 45.448 24 46 24 L 48 24 C 48.552 24 49 23.552 49 23 C 49 22.448 48.552 22 48 22 L 46 22 z M 38.6875 23.005859 C 36.6695 22.899859 35 24.505 35 26.5 L 35 38 L 35 48.865234 L 35 50.960938 L 35 56.367188 C 35 58.262188 36.4195 59.961547 38.3125 60.060547 C 40.3305 60.166547 42 58.559453 42 56.564453 L 42 56 L 42 53.134766 L 42 51.039062 L 42 49 L 42 26.697266 C 42 24.802266 40.5805 23.104859 38.6875 23.005859 z M 38.5 25 C 39.327 25 40 25.673 40 26.5 L 40 56.564453 C 40 57.391453 39.327 58.064453 38.5 58.064453 C 37.673 58.064453 37 57.391453 37 56.564453 L 37 26.5 C 37 25.673 37.673 25 38.5 25 z M 28.5 27 C 26.567 27 25 28.567 25 30.5 L 25 38 L 25 45.728516 L 25 47.826172 L 25 52 L 25 53.5 C 25 55.433 26.567 57 28.5 57 C 30.433 57 32 55.433 32 53.5 L 32 50.023438 L 32 47.927734 L 32 38 L 32 30.5 C 32 28.567 30.433 27 28.5 27 z M 46 27 C 45.448 27 45 27.448 45 28 C 45 28.552 45.448 29 46 29 L 48 29 C 48.552 29 49 28.552 49 28 C 49 27.448 48.552 27 48 27 L 46 27 z M 28.5 29 C 29.327 29 30 29.673 30 30.5 L 30 53.5 C 30 54.327 29.327 55 28.5 55 C 27.673 55 27 54.327 27 53.5 L 27 30.5 C 27 29.673 27.673 29 28.5 29 z M 18.5 31 C 16.567 31 15 32.567 15 34.5 L 15 38 L 15 42.570312 L 15 44.667969 L 15 49.5 C 15 51.433 16.567 53 18.5 53 C 20.433 53 22 51.433 22 49.5 L 22 46.880859 L 22 44.783203 L 22 38 L 22 34.5 C 22 32.567 20.433 31 18.5 31 z M 46 32 C 45.448 32 45 32.448 45 33 C 45 33.552 45.448 34 46 34 L 48 34 C 48.552 34 49 33.552 49 33 C 49 32.448 48.552 32 48 32 L 46 32 z M 18.5 33 C 19.327 33 20 33.673 20 34.5 L 20 49.5 C 20 50.327 19.327 51 18.5 51 C 17.673 51 17 50.327 17 49.5 L 17 34.5 C 17 33.673 17.673 33 18.5 33 z M 8.5 34 C 6.567 34 5 35.567 5 37.5 L 5 45.302734 C 5 47.197734 6.4195 48.895141 8.3125 48.994141 C 10.3305 49.100141 12 47.495 12 45.5 L 12 43.716797 L 12 41.617188 L 12 37.5 C 12 35.567 10.433 34 8.5 34 z M 8.5 36 C 9.327 36 10 36.673 10 37.5 L 10 45.5 C 10 46.327 9.327 47 8.5 47 C 7.673 47 7 46.327 7 45.5 L 7 37.5 C 7 36.673 7.673 36 8.5 36 z M 46 37 C 45.448 37 45 37.448 45 38 C 45 38.552 45.448 39 46 39 L 48 39 C 48.552 39 49 38.552 49 38 C 49 37.448 48.552 37 48 37 L 46 37 z M 46 42 C 45.448 42 45 42.448 45 43 C 45 43.552 45.448 44 46 44 L 48 44 C 48.552 44 49 43.552 49 43 C 49 42.448 48.552 42 48 42 L 46 42 z M 46 47 C 45.448 47 45 47.448 45 48 C 45 48.552 45.448 49 46 49 L 48 49 C 48.552 49 49 48.552 49 48 C 49 47.448 48.552 47 48 47 L 46 47 z"/></svg>