<svg width="0" height="0" class="hidden">
  <symbol xmlns="http://www.w3.org/2000/svg" viewBox="0 0 24 24" id="ri_facebook-box-fill">
    <path d="M15.402 21V14.034H17.735L18.084 11.326H15.402V9.598C15.402 8.814 15.62 8.279 16.744 8.279H18.178V5.857C17.4838 5.78334 16.7861 5.74762 16.088 5.75C14.021 5.75 12.606 7.012 12.606 9.33V11.326H10.268V14.034H12.606V21H4C3.73478 21 3.48043 20.8946 3.29289 20.7071C3.10536 20.5196 3 20.2652 3 20V4C3 3.73478 3.10536 3.48043 3.29289 3.29289C3.48043 3.10536 3.73478 3 4 3H20C20.2652 3 20.5196 3.10536 20.7071 3.29289C20.8946 3.48043 21 3.73478 21 4V20C21 20.2652 20.8946 20.5196 20.7071 20.7071C20.5196 20.8946 20.2652 21 20 21H15.402V21Z"></path>
  </symbol>
  <symbol xmlns="http://www.w3.org/2000/svg" viewBox="0 0 24 24" id="ri_instagram-fill">
    <path d="M12 2C14.717 2 15.056 2.01 16.122 2.06C17.187 2.11 17.912 2.277 18.55 2.525C19.21 2.779 19.766 3.123 20.322 3.678C20.8305 4.1779 21.224 4.78259 21.475 5.45C21.722 6.087 21.89 6.813 21.94 7.878C21.987 8.944 22 9.283 22 12C22 14.717 21.99 15.056 21.94 16.122C21.89 17.187 21.722 17.912 21.475 18.55C21.2247 19.2178 20.8311 19.8226 20.322 20.322C19.822 20.8303 19.2173 21.2238 18.55 21.475C17.913 21.722 17.187 21.89 16.122 21.94C15.056 21.987 14.717 22 12 22C9.283 22 8.944 21.99 7.878 21.94C6.813 21.89 6.088 21.722 5.45 21.475C4.78233 21.2245 4.17753 20.8309 3.678 20.322C3.16941 19.8222 2.77593 19.2175 2.525 18.55C2.277 17.913 2.11 17.187 2.06 16.122C2.013 15.056 2 14.717 2 12C2 9.283 2.01 8.944 2.06 7.878C2.11 6.812 2.277 6.088 2.525 5.45C2.77524 4.78218 3.1688 4.17732 3.678 3.678C4.17767 3.16923 4.78243 2.77573 5.45 2.525C6.088 2.277 6.812 2.11 7.878 2.06C8.944 2.013 9.283 2 12 2ZM12 7C10.6739 7 9.40215 7.52678 8.46447 8.46447C7.52678 9.40215 7 10.6739 7 12C7 13.3261 7.52678 14.5979 8.46447 15.5355C9.40215 16.4732 10.6739 17 12 17C13.3261 17 14.5979 16.4732 15.5355 15.5355C16.4732 14.5979 17 13.3261 17 12C17 10.6739 16.4732 9.40215 15.5355 8.46447C14.5979 7.52678 13.3261 7 12 7V7ZM18.5 6.75C18.5 6.41848 18.3683 6.10054 18.1339 5.86612C17.8995 5.6317 17.5815 5.5 17.25 5.5C16.9185 5.5 16.6005 5.6317 16.3661 5.86612C16.1317 6.10054 16 6.41848 16 6.75C16 7.08152 16.1317 7.39946 16.3661 7.63388C16.6005 7.8683 16.9185 8 17.25 8C17.5815 8 17.8995 7.8683 18.1339 7.63388C18.3683 7.39946 18.5 7.08152 18.5 6.75ZM12 9C12.7956 9 13.5587 9.31607 14.1213 9.87868C14.6839 10.4413 15 11.2044 15 12C15 12.7956 14.6839 13.5587 14.1213 14.1213C13.5587 14.6839 12.7956 15 12 15C11.2044 15 10.4413 14.6839 9.87868 14.1213C9.31607 13.5587 9 12.7956 9 12C9 11.2044 9.31607 10.4413 9.87868 9.87868C10.4413 9.31607 11.2044 9 12 9V9Z"></path>
  </symbol>
  <symbol xmlns="http://www.w3.org/2000/svg" viewBox="0 0 24 24" id="ri_linkedin-box-fill">
    <path d="M18.335 18.339H15.67V14.162C15.67 13.166 15.65 11.884 14.28 11.884C12.891 11.884 12.679 12.968 12.679 14.089V18.339H10.013V9.75H12.573V10.92H12.608C12.966 10.246 13.836 9.533 15.136 9.533C17.836 9.533 18.336 11.311 18.336 13.624V18.339H18.335ZM7.003 8.575C6.79956 8.57526 6.59806 8.53537 6.41006 8.45761C6.22207 8.37984 6.05127 8.26574 5.90746 8.12184C5.76365 7.97793 5.64965 7.80706 5.57201 7.61901C5.49437 7.43097 5.4546 7.22944 5.455 7.026C5.4552 6.71983 5.54618 6.4206 5.71644 6.16615C5.8867 5.91169 6.12859 5.71343 6.41153 5.59645C6.69447 5.47947 7.00574 5.44902 7.30598 5.50894C7.60622 5.56886 7.88196 5.71647 8.09831 5.93311C8.31466 6.14974 8.46191 6.42566 8.52145 6.72598C8.58099 7.0263 8.55013 7.33753 8.43278 7.62032C8.31544 7.9031 8.11687 8.14474 7.86219 8.31467C7.60751 8.4846 7.30817 8.5752 7.002 8.575H7.003ZM8.339 18.339H5.666V9.75H8.34V18.339H8.339ZM19.67 3H4.329C3.593 3 3 3.58 3 4.297V19.703C3 20.42 3.594 21 4.328 21H19.666C20.4 21 21 20.42 21 19.703V4.297C21 3.58 20.4 3 19.666 3H19.669H19.67Z"></path>
  </symbol>
  <symbol xmlns="http://www.w3.org/2000/svg" viewBox="0 0 24 24" id="ri_mail-fill">
    <path d="M3 3H21C21.2652 3 21.5196 3.10536 21.7071 3.29289C21.8946 3.48043 22 3.73478 22 4V20C22 20.2652 21.8946 20.5196 21.7071 20.7071C21.5196 20.8946 21.2652 21 21 21H3C2.73478 21 2.48043 20.8946 2.29289 20.7071C2.10536 20.5196 2 20.2652 2 20V4C2 3.73478 2.10536 3.48043 2.29289 3.29289C2.48043 3.10536 2.73478 3 3 3V3ZM12.06 11.683L5.648 6.238L4.353 7.762L12.073 14.317L19.654 7.757L18.346 6.244L12.061 11.683H12.06Z"></path>
  </symbol>
  <symbol xmlns="http://www.w3.org/2000/svg" viewBox="0 0 24 24" id="ri_phone-fill">
    <path d="M21 16.42V19.956C21.0001 20.2092 20.9042 20.453 20.7316 20.6382C20.559 20.8234 20.3226 20.9363 20.07 20.954C19.633 20.984 19.276 21 19 21C10.163 21 3 13.837 3 5C3 4.724 3.015 4.367 3.046 3.93C3.06372 3.67744 3.17658 3.44101 3.3618 3.26841C3.54703 3.09581 3.79082 2.99989 4.044 3H7.58C7.70404 2.99987 7.8237 3.04586 7.91573 3.12902C8.00776 3.21218 8.0656 3.32658 8.078 3.45C8.101 3.68 8.122 3.863 8.142 4.002C8.34073 5.38892 8.748 6.73783 9.35 8.003C9.445 8.203 9.383 8.442 9.203 8.57L7.045 10.112C8.36445 13.1865 10.8145 15.6365 13.889 16.956L15.429 14.802C15.4919 14.714 15.5838 14.6509 15.6885 14.6237C15.7932 14.5964 15.9042 14.6068 16.002 14.653C17.267 15.2539 18.6156 15.6601 20.002 15.858C20.141 15.878 20.324 15.9 20.552 15.922C20.6752 15.9346 20.7894 15.9926 20.8724 16.0846C20.9553 16.1766 21.0012 16.2961 21.001 16.42H21Z"></path>
  </symbol>
  <symbol xmlns="http://www.w3.org/2000/svg" viewBox="0 0 24 24" id="ri_telegram-fill">
    <path d="M12 22C6.477 22 2 17.523 2 12C2 6.477 6.477 2 12 2C17.523 2 22 6.477 22 12C22 17.523 17.523 22 12 22ZM8.89 13.17L8.903 13.163L9.773 16.033C9.885 16.344 10.039 16.4 10.226 16.374C10.414 16.349 10.513 16.248 10.636 16.13L11.824 14.982L14.374 16.87C14.84 17.127 15.175 16.994 15.291 16.438L16.948 8.616C17.131 7.888 16.811 7.596 16.246 7.828L6.513 11.588C5.849 11.854 5.853 12.226 6.393 12.391L8.89 13.171V13.17Z"></path>
  </symbol>
  <symbol fill="none" xmlns="http://www.w3.org/2000/svg" viewBox="0 0 24 24" id="ri_translate-2">
    <path d="M18.5 10L22.9 21H20.745L19.544 18H15.454L14.255 21H12.101L16.5 10H18.5ZM10 2V4H16V6H14.032C13.2606 8.32208 12.0295 10.465 10.412 12.301C11.1333 12.9446 11.9157 13.5163 12.748 14.008L11.997 15.886C10.9225 15.2766 9.9176 14.552 9 13.725C7.21358 15.3417 5.09804 16.5522 2.799 17.273L2.263 15.344C4.23284 14.7159 6.04802 13.6793 7.59 12.302C6.44869 11.0099 5.49806 9.56127 4.767 8H7.007C7.56435 9.02886 8.23267 9.9936 9 10.877C10.2501 9.4361 11.2353 7.7853 11.91 6.001L2 6V4H8V2H10ZM17.5 12.885L16.253 16H18.745L17.5 12.885Z" fill="white" fill-opacity="0.8"></path>
  </symbol>
  <symbol xmlns="http://www.w3.org/2000/svg" viewBox="0 0 24 24" id="angle-left">
    <path d="M8.50001 12.8L14.2 18.4C14.6 18.8 15.2 18.8 15.6 18.4C16 18 16 17.4 15.6 17L10.7 12L15.6 6.99999C16 6.59999 16 5.99999 15.6 5.59999C15.4 5.39999 15.2 5.29999 14.9 5.29999C14.6 5.29999 14.4 5.39999 14.2 5.59999L8.50001 11.2C8.10001 11.7 8.10001 12.3 8.50001 12.8C8.50001 12.7 8.50001 12.7 8.50001 12.8V12.8Z"></path>
  </symbol>
  <symbol xmlns="http://www.w3.org/2000/svg" viewBox="0 0 24 24" id="angle-right">
    <path d="M15.54 11.29L9.87998 5.63998C9.78702 5.54625 9.67642 5.47185 9.55456 5.42108C9.4327 5.37032 9.30199 5.34418 9.16998 5.34418C9.03797 5.34418 8.90726 5.37032 8.78541 5.42108C8.66355 5.47185 8.55294 5.54625 8.45998 5.63998C8.27373 5.82734 8.16919 6.08079 8.16919 6.34498C8.16919 6.60916 8.27373 6.86261 8.45998 7.04998L13.41 12.05L8.45998 17C8.27373 17.1873 8.16919 17.4408 8.16919 17.705C8.16919 17.9692 8.27373 18.2226 8.45998 18.41C8.5526 18.5045 8.66304 18.5796 8.78492 18.6311C8.90679 18.6826 9.03767 18.7094 9.16998 18.71C9.30229 18.7094 9.43317 18.6826 9.55505 18.6311C9.67692 18.5796 9.78737 18.5045 9.87998 18.41L15.54 12.76C15.6415 12.6663 15.7225 12.5527 15.7779 12.4262C15.8333 12.2997 15.8619 12.1631 15.8619 12.025C15.8619 11.8869 15.8333 11.7503 15.7779 11.6238C15.7225 11.4973 15.6415 11.3836 15.54 11.29V11.29Z"></path>
  </symbol>
</svg>