<svg width="46" height="46" viewBox="0 0 46 46" fill="none" xmlns="http://www.w3.org/2000/svg">
<path d="M22.9809 3.83333C12.4009 3.83333 3.83337 12.42 3.83337 23C3.83337 33.58 12.4009 42.1667 22.9809 42.1667C33.58 42.1667 42.1667 33.58 42.1667 23C42.1667 12.42 33.58 3.83333 22.9809 3.83333ZM36.2634 15.3333H30.6092C30.0093 12.9595 29.1211 10.668 27.9642 8.51C31.4604 9.71367 34.4064 12.1358 36.2634 15.3333ZM23 7.74333C24.5909 10.0433 25.8367 12.5925 26.6609 15.3333H19.3392C20.1634 12.5925 21.4092 10.0433 23 7.74333ZM8.16504 26.8333C7.85837 25.6067 7.66671 24.3225 7.66671 23C7.66671 21.6775 7.85837 20.3933 8.16504 19.1667H14.6434C14.49 20.4317 14.375 21.6967 14.375 23C14.375 24.3033 14.49 25.5683 14.6434 26.8333H8.16504ZM9.73671 30.6667H15.3909C16.0042 33.0625 16.8859 35.3625 18.0359 37.49C14.536 36.2929 11.5879 33.8691 9.73671 30.6667ZM15.3909 15.3333H9.73671C11.5879 12.1309 14.536 9.70709 18.0359 8.51C16.879 10.668 15.9907 12.9595 15.3909 15.3333ZM23 38.2567C21.4092 35.9567 20.1634 33.4075 19.3392 30.6667H26.6609C25.8367 33.4075 24.5909 35.9567 23 38.2567ZM27.485 26.8333H18.515C18.3425 25.5683 18.2084 24.3033 18.2084 23C18.2084 21.6967 18.3425 20.4125 18.515 19.1667H27.485C27.6575 20.4125 27.7917 21.6967 27.7917 23C27.7917 24.3033 27.6575 25.5683 27.485 26.8333ZM27.9642 37.49C29.1142 35.3625 29.9959 33.0625 30.6092 30.6667H36.2634C34.4064 33.8642 31.4604 36.2863 27.9642 37.49ZM31.3567 26.8333C31.51 25.5683 31.625 24.3033 31.625 23C31.625 21.6967 31.51 20.4317 31.3567 19.1667H37.835C38.1417 20.3933 38.3334 21.6775 38.3334 23C38.3334 24.3225 38.1417 25.6067 37.835 26.8333H31.3567Z" fill="#3184FF"/>
</svg>
