<svg width="110" height="90" viewBox="0 0 110 90" fill="none" xmlns="http://www.w3.org/2000/svg">
<path d="M0 4C0 1.79086 1.79086 0 4 0H106C108.209 0 110 1.79086 110 4V86C110 88.2091 108.209 90 106 90H4C1.79086 90 0 88.2091 0 86V4Z" fill="white" fill-opacity="0.8"/>
<path d="M35.5147 18.526H38.3227V31H35.5147V18.526Z" fill="#3184FF"/>
<path d="M49.634 18.526H52.442V31H49.634V25.708H44.918V31H42.11V18.526H44.918V23.296H49.634V18.526Z" fill="#3184FF"/>
<path d="M55.3287 31V18.526H63.7527V20.884H58.1367V23.332H63.1227V25.636H58.1367V28.642H64.1667V31H55.3287Z" fill="#3184FF"/>
<path d="M74.5787 28.588V31H66.2448V18.526H69.0527V28.588H74.5787Z" fill="#3184FF"/>
<path d="M80.1313 18.382C81.9913 18.382 83.4193 18.712 84.4153 19.372C85.4113 20.02 85.9093 21.088 85.9093 22.576C85.9093 24.076 85.4053 25.162 84.3973 25.834C83.3893 26.494 81.9493 26.824 80.0773 26.824H79.1953V31H76.3873V18.706C76.9993 18.586 77.6473 18.502 78.3313 18.454C79.0153 18.406 79.6153 18.382 80.1313 18.382ZM80.3113 20.776C80.1073 20.776 79.9033 20.782 79.6993 20.794C79.5073 20.806 79.3393 20.818 79.1953 20.83V24.43H80.0773C81.0493 24.43 81.7813 24.298 82.2733 24.034C82.7653 23.77 83.0113 23.278 83.0113 22.558C83.0113 22.21 82.9453 21.922 82.8133 21.694C82.6933 21.466 82.5133 21.286 82.2733 21.154C82.0453 21.01 81.7633 20.914 81.4273 20.866C81.0913 20.806 80.7193 20.776 80.3113 20.776Z" fill="#3184FF"/>
<path d="M25.86 21.586H27.948L28.542 18.526H30.882L30.288 21.586H31.602V23.656H29.892L29.46 25.87H31.602V27.94H29.064L28.488 31H26.148L26.724 27.94H24.636L24.06 31H21.72L22.296 27.94H21V25.87H22.692L23.124 23.656H21V21.586H23.52L24.114 18.526H26.454L25.86 21.586ZM25.032 25.87H27.12L27.552 23.656H25.464L25.032 25.87Z" fill="#171717"/>
<path d="M12.058 52.252C11.182 52.252 10.426 52.132 9.79 51.892C9.154 51.64 8.626 51.298 8.206 50.866C7.798 50.422 7.492 49.9 7.288 49.3C7.096 48.688 7 48.016 7 47.284V39.526H9.808V47.05C9.808 47.554 9.862 47.986 9.97 48.346C10.09 48.694 10.246 48.982 10.438 49.21C10.642 49.426 10.882 49.582 11.158 49.678C11.446 49.774 11.758 49.822 12.094 49.822C12.778 49.822 13.33 49.612 13.75 49.192C14.182 48.772 14.398 48.058 14.398 47.05V39.526H17.206V47.284C17.206 48.016 17.104 48.688 16.9 49.3C16.696 49.912 16.384 50.44 15.964 50.884C15.544 51.316 15.01 51.652 14.362 51.892C13.714 52.132 12.946 52.252 12.058 52.252Z" fill="#3184FF"/>
<path d="M27.2686 52C27.0166 51.592 26.7166 51.154 26.3686 50.686C26.0326 50.206 25.6606 49.732 25.2526 49.264C24.8566 48.784 24.4426 48.328 24.0106 47.896C23.5786 47.452 23.1466 47.062 22.7146 46.726V52H19.9066V39.526H22.7146V44.242C23.4466 43.474 24.1786 42.676 24.9106 41.848C25.6546 41.008 26.3446 40.234 26.9806 39.526H30.3106C29.4586 40.534 28.6006 41.506 27.7366 42.442C26.8846 43.378 25.9846 44.32 25.0366 45.268C26.0326 46.096 26.9926 47.08 27.9166 48.22C28.8526 49.36 29.7466 50.62 30.5986 52H27.2686Z" fill="#3184FF"/>
<path d="M35.8653 39.382C37.7373 39.382 39.1713 39.718 40.1673 40.39C41.1633 41.05 41.6613 42.082 41.6613 43.486C41.6613 44.362 41.4573 45.076 41.0493 45.628C40.6533 46.168 40.0773 46.594 39.3213 46.906C39.5733 47.218 39.8373 47.578 40.1133 47.986C40.3893 48.382 40.6593 48.802 40.9233 49.246C41.1993 49.678 41.4633 50.134 41.7153 50.614C41.9673 51.082 42.2013 51.544 42.4173 52H39.2673C39.0393 51.592 38.8053 51.178 38.5653 50.758C38.3373 50.338 38.0972 49.93 37.8452 49.534C37.6052 49.138 37.3653 48.766 37.1253 48.418C36.8853 48.058 36.6453 47.734 36.4053 47.446H35.0193V52H32.2113V39.706C32.8233 39.586 33.4533 39.502 34.1013 39.454C34.7613 39.406 35.3493 39.382 35.8653 39.382ZM36.0273 41.776C35.8233 41.776 35.6372 41.782 35.4692 41.794C35.3132 41.806 35.1633 41.818 35.0193 41.83V45.214H35.8113C36.8673 45.214 37.6233 45.082 38.0793 44.818C38.5353 44.554 38.7633 44.104 38.7633 43.468C38.7633 42.856 38.5293 42.424 38.0613 42.172C37.6053 41.908 36.9273 41.776 36.0273 41.776Z" fill="#3184FF"/>
<path d="M53.1316 52C52.9996 51.568 52.8496 51.124 52.6816 50.668C52.5256 50.212 52.3696 49.756 52.2136 49.3H47.3536C47.1976 49.756 47.0356 50.212 46.8676 50.668C46.7116 51.124 46.5676 51.568 46.4356 52H43.5196C43.9876 50.656 44.4316 49.414 44.8516 48.274C45.2716 47.134 45.6796 46.06 46.0756 45.052C46.4836 44.044 46.8796 43.09 47.2636 42.19C47.6596 41.278 48.0676 40.39 48.4876 39.526H51.1696C51.5776 40.39 51.9796 41.278 52.3756 42.19C52.7716 43.09 53.1676 44.044 53.5636 45.052C53.9716 46.06 54.3856 47.134 54.8056 48.274C55.2256 49.414 55.6696 50.656 56.1376 52H53.1316ZM49.7656 42.352C49.7056 42.532 49.6156 42.778 49.4956 43.09C49.3756 43.402 49.2376 43.762 49.0816 44.17C48.9256 44.578 48.7516 45.028 48.5596 45.52C48.3796 46.012 48.1936 46.528 48.0016 47.068H51.5476C51.3556 46.528 51.1696 46.012 50.9896 45.52C50.8096 45.028 50.6356 44.578 50.4676 44.17C50.3116 43.762 50.1736 43.402 50.0536 43.09C49.9336 42.778 49.8376 42.532 49.7656 42.352Z" fill="#3184FF"/>
<path d="M66.1223 52C65.3183 50.572 64.4483 49.162 63.5123 47.77C62.5763 46.378 61.5803 45.064 60.5243 43.828V52H57.7523V39.526H60.0383C60.4343 39.922 60.8723 40.408 61.3523 40.984C61.8323 41.56 62.3183 42.178 62.8103 42.838C63.3143 43.486 63.8123 44.164 64.3043 44.872C64.7963 45.568 65.2583 46.24 65.6903 46.888V39.526H68.4803V52H66.1223Z" fill="#3184FF"/>
<path d="M71.3577 39.526H74.1657V52H71.3577V39.526Z" fill="#3184FF"/>
<path d="M85.405 52C85.273 51.568 85.123 51.124 84.955 50.668C84.799 50.212 84.643 49.756 84.487 49.3H79.627C79.471 49.756 79.309 50.212 79.141 50.668C78.985 51.124 78.841 51.568 78.709 52H75.793C76.261 50.656 76.705 49.414 77.125 48.274C77.545 47.134 77.953 46.06 78.349 45.052C78.757 44.044 79.153 43.09 79.537 42.19C79.933 41.278 80.341 40.39 80.761 39.526H83.443C83.851 40.39 84.253 41.278 84.649 42.19C85.045 43.09 85.441 44.044 85.837 45.052C86.245 46.06 86.659 47.134 87.079 48.274C87.499 49.414 87.943 50.656 88.411 52H85.405ZM82.039 42.352C81.979 42.532 81.8891 42.778 81.7691 43.09C81.6491 43.402 81.511 43.762 81.355 44.17C81.199 44.578 81.025 45.028 80.833 45.52C80.653 46.012 80.467 46.528 80.275 47.068H83.821C83.629 46.528 83.443 46.012 83.263 45.52C83.083 45.028 82.9091 44.578 82.7411 44.17C82.5851 43.762 82.447 43.402 82.327 43.09C82.207 42.778 82.111 42.532 82.039 42.352Z" fill="#3184FF"/>
<path d="M98.3957 52C97.5917 50.572 96.7217 49.162 95.7857 47.77C94.8497 46.378 93.8537 45.064 92.7977 43.828V52H90.0257V39.526H92.3117C92.7077 39.922 93.1457 40.408 93.6257 40.984C94.1057 41.56 94.5917 42.178 95.0837 42.838C95.5877 43.486 96.0857 44.164 96.5777 44.872C97.0697 45.568 97.5317 46.24 97.9637 46.888V39.526H100.754V52H98.3957Z" fill="#3184FF"/>
<path d="M29.45 61.62C29.594 62.112 29.75 62.67 29.918 63.294C30.098 63.906 30.284 64.542 30.476 65.202C30.68 65.862 30.884 66.522 31.088 67.182C31.292 67.842 31.49 68.454 31.682 69.018C31.838 68.406 31.994 67.74 32.15 67.02C32.318 66.3 32.474 65.556 32.618 64.788C32.762 64.02 32.9 63.258 33.032 62.502C33.176 61.734 33.308 60.996 33.428 60.288H36.344C35.924 62.376 35.438 64.494 34.886 66.642C34.346 68.79 33.758 70.83 33.122 72.762H30.548C30.128 71.61 29.72 70.404 29.324 69.144C28.928 67.872 28.538 66.6 28.154 65.328C27.77 66.6 27.386 67.872 27.002 69.144C26.618 70.404 26.216 71.61 25.796 72.762H23.222C22.586 70.83 21.992 68.79 21.44 66.642C20.9 64.494 20.42 62.376 20 60.288H23.042C23.162 60.996 23.294 61.734 23.438 62.502C23.582 63.258 23.732 64.02 23.888 64.788C24.044 65.556 24.2 66.3 24.356 67.02C24.524 67.74 24.692 68.406 24.86 69.018C25.076 68.43 25.286 67.806 25.49 67.146C25.694 66.486 25.892 65.826 26.084 65.166C26.276 64.506 26.45 63.87 26.606 63.258C26.774 62.646 26.924 62.1 27.056 61.62H29.45Z" fill="#3184FF"/>
<path d="M40.3306 66.516C40.3306 67.128 40.4026 67.68 40.5466 68.172C40.7026 68.664 40.9186 69.09 41.1946 69.45C41.4826 69.798 41.8306 70.068 42.2386 70.26C42.6466 70.452 43.1146 70.548 43.6426 70.548C44.1586 70.548 44.6206 70.452 45.0286 70.26C45.4486 70.068 45.7966 69.798 46.0726 69.45C46.3606 69.09 46.5766 68.664 46.7206 68.172C46.8766 67.68 46.9546 67.128 46.9546 66.516C46.9546 65.904 46.8766 65.352 46.7206 64.86C46.5766 64.356 46.3606 63.93 46.0726 63.582C45.7966 63.222 45.4486 62.946 45.0286 62.754C44.6206 62.562 44.1586 62.466 43.6426 62.466C43.1146 62.466 42.6466 62.568 42.2386 62.772C41.8306 62.964 41.4826 63.24 41.1946 63.6C40.9186 63.948 40.7026 64.374 40.5466 64.878C40.4026 65.37 40.3306 65.916 40.3306 66.516ZM49.8526 66.516C49.8526 67.584 49.6906 68.526 49.3666 69.342C49.0546 70.146 48.6226 70.824 48.0706 71.376C47.5186 71.916 46.8586 72.324 46.0906 72.6C45.3346 72.876 44.5186 73.014 43.6426 73.014C42.7906 73.014 41.9866 72.876 41.2306 72.6C40.4746 72.324 39.8146 71.916 39.2506 71.376C38.6866 70.824 38.2426 70.146 37.9186 69.342C37.5946 68.526 37.4326 67.584 37.4326 66.516C37.4326 65.448 37.6006 64.512 37.9366 63.708C38.2726 62.892 38.7226 62.208 39.2866 61.656C39.8626 61.104 40.5226 60.69 41.2666 60.414C42.0226 60.138 42.8146 60 43.6426 60C44.4946 60 45.2986 60.138 46.0546 60.414C46.8106 60.69 47.4706 61.104 48.0346 61.656C48.5986 62.208 49.0426 62.892 49.3666 63.708C49.6906 64.512 49.8526 65.448 49.8526 66.516Z" fill="#3184FF"/>
<path d="M55.5053 60.288C55.7213 60.684 55.9673 61.176 56.2433 61.764C56.5313 62.34 56.8253 62.97 57.1253 63.654C57.4373 64.326 57.7433 65.016 58.0433 65.724C58.3433 66.432 58.6253 67.098 58.8893 67.722C59.1533 67.098 59.4353 66.432 59.7353 65.724C60.0353 65.016 60.3353 64.326 60.6353 63.654C60.9473 62.97 61.2413 62.34 61.5173 61.764C61.8053 61.176 62.0573 60.684 62.2733 60.288H64.8293C64.9493 61.116 65.0573 62.046 65.1533 63.078C65.2613 64.098 65.3513 65.166 65.4233 66.282C65.5073 67.386 65.5793 68.496 65.6393 69.612C65.7113 70.728 65.7713 71.778 65.8193 72.762H63.0833C63.0473 71.55 62.9993 70.23 62.9393 68.802C62.8793 67.374 62.7893 65.934 62.6693 64.482C62.4533 64.986 62.2133 65.544 61.9493 66.156C61.6853 66.768 61.4213 67.38 61.1573 67.992C60.9053 68.604 60.6593 69.192 60.4193 69.756C60.1793 70.308 59.9753 70.782 59.8073 71.178H57.8453C57.6773 70.782 57.4733 70.308 57.2333 69.756C56.9933 69.192 56.7413 68.604 56.4773 67.992C56.2253 67.38 55.9673 66.768 55.7033 66.156C55.4393 65.544 55.1993 64.986 54.9833 64.482C54.8633 65.934 54.7733 67.374 54.7133 68.802C54.6533 70.23 54.6053 71.55 54.5693 72.762H51.8333C51.8813 71.778 51.9353 70.728 51.9953 69.612C52.0673 68.496 52.1393 67.386 52.2113 66.282C52.2953 65.166 52.3853 64.098 52.4813 63.078C52.5893 62.046 52.7033 61.116 52.8233 60.288H55.5053Z" fill="#3184FF"/>
<path d="M68.3476 72.762V60.288H76.7716V62.646H71.1556V65.094H76.1416V67.398H71.1556V70.404H77.1856V72.762H68.3476Z" fill="#3184FF"/>
<path d="M87.6336 72.762C86.8296 71.334 85.9596 69.924 85.0236 68.532C84.0876 67.14 83.0916 65.826 82.0356 64.59V72.762H79.2636V60.288H81.5496C81.9456 60.684 82.3836 61.17 82.8636 61.746C83.3436 62.322 83.8296 62.94 84.3216 63.6C84.8256 64.248 85.3236 64.926 85.8156 65.634C86.3076 66.33 86.7696 67.002 87.2016 67.65V60.288H89.9916V72.762H87.6336Z" fill="#3184FF"/>
</svg>
