<svg width="143" height="151" viewBox="0 0 143 151" fill="none" xmlns="http://www.w3.org/2000/svg">
<rect x="20" y="30.7853" width="75" height="90" rx="4" fill="#3184FF"/>
<g filter="url(#filter0_bd_21_97)">
<rect width="75" height="90" rx="4" transform="matrix(0.939826 0.341653 -0.342387 0.939559 52.1664 20)" fill="white" fill-opacity="0.8" shape-rendering="crispEdges"/>
</g>
<path d="M75.0116 118.519C78.2847 119.709 81.8971 119.552 85.054 118.081C88.2109 116.611 90.6537 113.948 91.845 110.679C93.0363 107.41 92.8786 103.802 91.4065 100.649C89.9345 97.4959 87.2686 95.0561 83.9954 93.8662C80.7223 92.6763 77.1099 92.8338 73.953 94.3041C70.7961 95.7744 68.3533 98.437 67.162 101.706C65.9707 104.975 66.1284 108.583 67.6005 111.736C69.0725 114.889 71.7384 117.329 75.0116 118.519Z" fill="#FFD11C" stroke="#171717" stroke-width="0.526316"/>
<path d="M69.7709 132.9L76.5013 140L84.3831 118.371C84.3831 118.371 80.8943 120.658 75.0115 118.519C69.1287 116.381 67.9068 112.447 67.9068 112.447L60.0459 134.018L69.7709 132.9Z" fill="#FFD11C" stroke="#171717" stroke-width="0.526316" stroke-linecap="round" stroke-linejoin="round"/>
<line x1="1.05263" y1="-1.05263" x2="49.2137" y2="-1.05263" transform="matrix(0.939826 0.341653 -0.342387 0.939559 56.9514 37.6875)" stroke="#171717" stroke-width="2.10526" stroke-linecap="round"/>
<line x1="1.05263" y1="-1.05263" x2="33.5675" y2="-1.05263" transform="matrix(0.939826 0.341653 -0.342387 0.939559 53.7775 46.1427)" stroke="#171717" stroke-width="2.10526" stroke-linecap="round"/>
<line x1="1.05263" y1="-1.05263" x2="23.5853" y2="-1.05263" transform="matrix(0.939826 0.341653 -0.342387 0.939559 50.5735 54.6816)" stroke="#171717" stroke-width="2.10526" stroke-linecap="round"/>
<defs>
<filter id="filter0_bd_21_97" x="1.4257" y="0.0721264" width="141.154" height="150.04" filterUnits="userSpaceOnUse" color-interpolation-filters="sRGB">
<feFlood flood-opacity="0" result="BackgroundImageFix"/>
<feGaussianBlur in="BackgroundImage" stdDeviation="10.5263"/>
<feComposite in2="SourceAlpha" operator="in" result="effect1_backgroundBlur_21_97"/>
<feColorMatrix in="SourceAlpha" type="matrix" values="0 0 0 0 0 0 0 0 0 0 0 0 0 0 0 0 0 0 127 0" result="hardAlpha"/>
<feOffset/>
<feGaussianBlur stdDeviation="10.5263"/>
<feComposite in2="hardAlpha" operator="out"/>
<feColorMatrix type="matrix" values="0 0 0 0 0.27451 0 0 0 0 0.596078 0 0 0 0 0.972549 0 0 0 0.2 0"/>
<feBlend mode="normal" in2="effect1_backgroundBlur_21_97" result="effect2_dropShadow_21_97"/>
<feBlend mode="normal" in="SourceGraphic" in2="effect2_dropShadow_21_97" result="shape"/>
</filter>
</defs>
</svg>
