<svg width="46" height="46" viewBox="0 0 46 46" fill="none" xmlns="http://www.w3.org/2000/svg">
<path d="M12.4583 3.83331H33.5417C33.8392 3.83331 34.1327 3.90259 34.3988 4.03566C34.665 4.16873 34.8965 4.36194 35.075 4.59998L40.25 11.5V40.25C40.25 40.7583 40.0481 41.2458 39.6886 41.6053C39.3292 41.9647 38.8417 42.1666 38.3333 42.1666H7.66667C7.15834 42.1666 6.67082 41.9647 6.31138 41.6053C5.95193 41.2458 5.75 40.7583 5.75 40.25V11.5L10.925 4.59998C11.1035 4.36194 11.335 4.16873 11.6012 4.03566C11.8673 3.90259 12.1608 3.83331 12.4583 3.83331ZM36.4167 15.3333H9.58333V38.3333H36.4167V15.3333ZM35.4583 11.5L32.5833 7.66665H13.4167L10.5417 11.5H35.4583ZM17.25 19.1666V23C17.25 24.525 17.8558 25.9875 18.9341 27.0658C20.0125 28.1442 21.475 28.75 23 28.75C24.525 28.75 25.9875 28.1442 27.0659 27.0658C28.1442 25.9875 28.75 24.525 28.75 23V19.1666H32.5833V23C32.5833 25.5416 31.5737 27.9792 29.7764 29.7764C27.9792 31.5736 25.5417 32.5833 23 32.5833C20.4583 32.5833 18.0208 31.5736 16.2236 29.7764C14.4263 27.9792 13.4167 25.5416 13.4167 23V19.1666H17.25Z" fill="#3184FF"/>
</svg>
