<svg width="150" height="150" viewBox="0 0 150 150" fill="none" xmlns="http://www.w3.org/2000/svg">
<g filter="url(#filter0_bd_10_38)">
<rect x="20.1119" y="38.1294" width="90" height="75" rx="4" fill="#339DFF"/>
</g>
<g filter="url(#filter1_bd_10_38)">
<rect x="45.6515" y="24" width="90" height="75" rx="4" transform="rotate(20 45.6515 24)" fill="white" fill-opacity="0.9" shape-rendering="crispEdges"/>
</g>
<line x1="51.7146" y1="33.656" x2="71.8328" y2="40.9785" stroke="#171717" stroke-width="2" stroke-linecap="round"/>
<path d="M51.6816 64.5052L42.0591 61.0029C41.7401 60.8868 41.4882 60.6269 41.3589 60.2805C41.2295 59.934 41.2333 59.5294 41.3694 59.1556L44.4475 50.6983C44.5836 50.3245 44.8408 50.0121 45.1626 49.8299C45.4844 49.6476 45.8444 49.6105 46.1634 49.7266L55.7858 53.2289C56.1048 53.345 56.3567 53.6048 56.4861 53.9513C56.6154 54.2977 56.6117 54.7024 56.4756 55.0762L53.3974 63.5334C53.2614 63.9073 53.0041 64.2196 52.6824 64.4019C52.3606 64.5841 52.0006 64.6213 51.6816 64.5052Z" fill="#FFFA80"/>
<g clip-path="url(#clip0_10_38)">
<path d="M80.3442 107.748C78.475 107.068 76.9527 105.673 76.1121 103.87C75.2714 102.067 75.1813 100.005 75.8617 98.1353C76.542 96.2662 77.937 94.7438 79.7397 93.9032C81.5425 93.0625 83.6053 92.9725 85.4745 93.6528C87.0053 94.2099 88.3062 95.2581 89.1778 96.6353C88.0673 96.9665 87.0497 97.553 86.2064 98.3479C85.3632 99.1427 84.7175 100.124 84.3212 101.213C83.9248 102.302 83.7888 103.468 83.9239 104.619C84.059 105.77 84.4615 106.874 85.0992 107.841C83.5474 108.336 81.8755 108.303 80.3442 107.748Z" fill="#FFFA80"/>
<path d="M91.9824 111.8C90.1132 111.12 88.5909 109.725 87.7502 107.922C86.9096 106.119 86.8195 104.057 87.4999 102.187C88.1802 100.318 89.5752 98.7959 91.3779 97.9553C93.1807 97.1146 95.2435 97.0246 97.1127 97.7049C98.9819 98.3852 100.504 99.7802 101.345 101.583C102.185 103.386 102.276 105.449 101.595 107.318C100.915 109.187 99.5199 110.709 97.7172 111.55C95.9144 112.391 93.8516 112.481 91.9824 111.8Z" fill="#FFFA80"/>
</g>
<defs>
<filter id="filter0_bd_10_38" x="0.111938" y="18.1294" width="130" height="115" filterUnits="userSpaceOnUse" color-interpolation-filters="sRGB">
<feFlood flood-opacity="0" result="BackgroundImageFix"/>
<feGaussianBlur in="BackgroundImage" stdDeviation="10"/>
<feComposite in2="SourceAlpha" operator="in" result="effect1_backgroundBlur_10_38"/>
<feColorMatrix in="SourceAlpha" type="matrix" values="0 0 0 0 0 0 0 0 0 0 0 0 0 0 0 0 0 0 127 0" result="hardAlpha"/>
<feOffset dx="1" dy="2"/>
<feGaussianBlur stdDeviation="2.5"/>
<feComposite in2="hardAlpha" operator="out"/>
<feColorMatrix type="matrix" values="0 0 0 0 0.870833 0 0 0 0 0.870833 0 0 0 0 0.870833 0 0 0 0.6 0"/>
<feBlend mode="normal" in2="effect1_backgroundBlur_10_38" result="effect2_dropShadow_10_38"/>
<feBlend mode="normal" in="SourceGraphic" in2="effect2_dropShadow_10_38" result="shape"/>
</filter>
<filter id="filter1_bd_10_38" x="1.12573" y="5.12576" width="147.972" height="139.007" filterUnits="userSpaceOnUse" color-interpolation-filters="sRGB">
<feFlood flood-opacity="0" result="BackgroundImageFix"/>
<feGaussianBlur in="BackgroundImage" stdDeviation="10"/>
<feComposite in2="SourceAlpha" operator="in" result="effect1_backgroundBlur_10_38"/>
<feColorMatrix in="SourceAlpha" type="matrix" values="0 0 0 0 0 0 0 0 0 0 0 0 0 0 0 0 0 0 127 0" result="hardAlpha"/>
<feOffset dx="1" dy="2"/>
<feGaussianBlur stdDeviation="2.5"/>
<feComposite in2="hardAlpha" operator="out"/>
<feColorMatrix type="matrix" values="0 0 0 0 0.870833 0 0 0 0 0.870833 0 0 0 0 0.870833 0 0 0 0.6 0"/>
<feBlend mode="normal" in2="effect1_backgroundBlur_10_38" result="effect2_dropShadow_10_38"/>
<feBlend mode="normal" in="SourceGraphic" in2="effect2_dropShadow_10_38" result="shape"/>
</filter>
<clipPath id="clip0_10_38">
<rect width="29" height="16" fill="white" transform="translate(78.0121 90.0514) rotate(20)"/>
</clipPath>
</defs>
</svg>
