<svg width="151" height="160" viewBox="0 0 151 110" fill="none" xmlns="http://www.w3.org/2000/svg">
<g filter="url(#filter0_bd_10_38)">
<rect x="20" y="34.0933" width="90" height="74.8083" rx="4" fill="#4698F8"/>
</g>
<g filter="url(#filter1_bd_10_38)">
<rect width="89.9731" height="74.8308" rx="4" transform="matrix(0.939973 0.341248 -0.342794 0.939411 45.6515 20)" fill="white" fill-opacity="0.9" shape-rendering="crispEdges"/>
</g>
<line x1="1" y1="-1" x2="22.4024" y2="-1" transform="matrix(0.939973 0.341248 -0.342794 0.939411 50.4329 30.2275)" stroke="#171717" stroke-width="2" stroke-linecap="round"/>
<path d="M51.6816 60.4017L42.0591 56.9083C41.7401 56.7925 41.4882 56.5333 41.3589 56.1878C41.2295 55.8422 41.2333 55.4386 41.3694 55.0657L44.4475 46.6301C44.5836 46.2572 44.8408 45.9456 45.1626 45.7638C45.4844 45.5821 45.8444 45.545 46.1634 45.6608L55.7858 49.1542C56.1048 49.27 56.3567 49.5292 56.4861 49.8747C56.6154 50.2203 56.6117 50.6239 56.4756 50.9968L53.3974 59.4324C53.2614 59.8053 53.0041 60.1169 52.6824 60.2986C52.3606 60.4804 52.0006 60.5175 51.6816 60.4017Z" fill="#F8E646" stroke="black"/>
<g clip-path="url(#clip0_10_38)">
<path d="M80.3442 103.534C78.475 102.856 76.9527 101.464 76.1121 99.666C75.2714 97.8679 75.1813 95.8103 75.8617 93.9459C76.542 92.0815 77.937 90.563 79.7397 89.7245C81.5425 88.886 83.6053 88.7962 85.4745 89.4748C87.0053 90.0305 88.3062 91.076 89.1778 92.4496C88.0673 92.7801 87.0497 93.3651 86.2065 94.1579C85.3632 94.9507 84.7175 95.9293 84.3212 97.0154C83.9248 98.1016 83.7888 99.2652 83.9239 100.413C84.059 101.561 84.4615 102.662 85.0992 103.627C83.5474 104.12 81.8755 104.088 80.3442 103.534Z" fill="#F8E646" stroke="black"/>
<path d="M91.9824 107.576C90.1132 106.897 88.5909 105.506 87.7502 103.708C86.9096 101.91 86.8195 99.852 87.4999 97.9876C88.1802 96.1232 89.5752 94.6048 91.3779 93.7663C93.1807 92.9278 95.2435 92.838 97.1127 93.5165C98.9819 94.1951 100.504 95.5865 101.345 97.3847C102.185 99.1828 102.276 101.24 101.595 103.105C100.915 104.969 99.5199 106.488 97.7172 107.326C95.9144 108.165 93.8516 108.254 91.9824 107.576Z" fill="#F8E646" stroke="black"/>
</g>
<defs>
<filter id="filter0_bd_10_38" x="0.111938" y="14.0933" width="130" height="114.808" filterUnits="userSpaceOnUse" color-interpolation-filters="sRGB">
<feFlood flood-opacity="0" result="BackgroundImageFix"/>
<feGaussianBlur in="BackgroundImage" stdDeviation="10"/>
<feComposite in2="SourceAlpha" operator="in" result="effect1_backgroundBlur_10_38"/>
<feColorMatrix in="SourceAlpha" type="matrix" values="0 0 0 0 0 0 0 0 0 0 0 0 0 0 0 0 0 0 127 0" result="hardAlpha"/>
<feOffset dx="1" dy="2"/>
<feGaussianBlur stdDeviation="2.5"/>
<feComposite in2="hardAlpha" operator="out"/>
<feColorMatrix type="matrix" values="0 0 0 0 0.870833 0 0 0 0 0.870833 0 0 0 0 0.870833 0 0 0 0.6 0"/>
<feBlend mode="normal" in2="effect1_backgroundBlur_10_38" result="effect2_dropShadow_10_38"/>
<feBlend mode="normal" in="SourceGraphic" in2="effect2_dropShadow_10_38" result="shape"/>
</filter>
<filter id="filter1_bd_10_38" x="1.12787" y="1.12366" width="147.968" height="138.753" filterUnits="userSpaceOnUse" color-interpolation-filters="sRGB">
<feFlood flood-opacity="0" result="BackgroundImageFix"/>
<feGaussianBlur in="BackgroundImage" stdDeviation="10"/>
<feComposite in2="SourceAlpha" operator="in" result="effect1_backgroundBlur_10_38"/>
<feColorMatrix in="SourceAlpha" type="matrix" values="0 0 0 0 0 0 0 0 0 0 0 0 0 0 0 0 0 0 127 0" result="hardAlpha"/>
<feOffset dx="1" dy="2"/>
<feGaussianBlur stdDeviation="2.5"/>
<feComposite in2="hardAlpha" operator="out"/>
<feColorMatrix type="matrix" values="0 0 0 0 0.870833 0 0 0 0 0.870833 0 0 0 0 0.870833 0 0 0 0.6 0"/>
<feBlend mode="normal" in2="effect1_backgroundBlur_10_38" result="effect2_dropShadow_10_38"/>
<feBlend mode="normal" in="SourceGraphic" in2="effect2_dropShadow_10_38" result="shape"/>
</filter>
<clipPath id="clip0_10_38">
<rect width="28.9913" height="15.9639" fill="white" transform="matrix(0.939973 0.341248 -0.342794 0.939411 78.0121 85.8826)"/>
</clipPath>
</defs>
</svg>
