<svg width="140" height="130" viewBox="0 0 140 130" fill="none" xmlns="http://www.w3.org/2000/svg">
<g clip-path="url(#clip0_5_14)">
<g filter="url(#filter0_bd_5_14)">
<rect x="5" y="45.3979" width="100" height="80" rx="4" transform="rotate(-20 5 45.3979)" fill="#FCFCFC" fill-opacity="0.6" shape-rendering="crispEdges"/>
</g>
<g filter="url(#filter1_bd_5_14)">
<path d="M111.462 100.66L38.2454 100.66C35.8181 100.66 33.4902 99.6954 31.7739 97.9791C30.0576 96.2628 29.0933 93.9349 29.0933 91.5076L29.0933 36.5953C29.0933 34.168 30.0576 31.8401 31.7739 30.1238C33.4902 28.4074 35.8181 27.4432 38.2454 27.4432L111.462 27.4432C113.889 27.4432 116.217 28.4074 117.933 30.1238C119.65 31.8401 120.614 34.168 120.614 36.5953L120.614 91.5076C120.614 93.9349 119.65 96.2628 117.933 97.9791C116.217 99.6954 113.889 100.66 111.462 100.66Z" fill="#567AFF"/>
<line x1="40.3323" y1="38" x2="61.7417" y2="38" stroke="#171717" stroke-width="2" stroke-linecap="round"/>
<path d="M50.8523 65L40.6123 65C40.2728 65 39.9472 64.842 39.7072 64.5607C39.4671 64.2794 39.3323 63.8978 39.3323 63.5L39.3323 54.5C39.3323 54.1022 39.4671 53.7206 39.7072 53.4393C39.9472 53.158 40.2728 53 40.6123 53L50.8523 53C51.1918 53 51.5173 53.158 51.7574 53.4393C51.9974 53.7206 52.1323 54.1022 52.1323 54.5L52.1323 63.5C52.1323 63.8978 51.9974 64.2794 51.7574 64.5607C51.5173 64.842 51.1918 65 50.8523 65Z" fill="#FFFA80"/>
<path d="M101.832 91C99.8432 91 97.9355 90.2098 96.529 88.8033C95.1224 87.3968 94.3323 85.4891 94.3323 83.5C94.3323 81.5109 95.1224 79.6032 96.529 78.1967C97.9355 76.7902 99.8432 76 101.832 76C103.461 76 105.042 76.54 106.332 77.536C105.402 78.2271 104.646 79.1263 104.126 80.1616C103.605 81.1969 103.334 82.3397 103.334 83.4985C103.334 84.6573 103.605 85.8001 104.126 86.8354C104.646 87.8707 105.402 88.7699 106.332 89.461C105.043 90.4565 103.461 90.9976 101.832 91Z" fill="white" fill-opacity="0.8"/>
<path d="M107.832 91C105.843 91 103.936 90.2098 102.529 88.8033C101.122 87.3968 100.332 85.4891 100.332 83.5C100.332 81.5109 101.122 79.6032 102.529 78.1967C103.936 76.7902 105.843 76 107.832 76C109.821 76 111.729 76.7902 113.136 78.1967C114.542 79.6032 115.332 81.5109 115.332 83.5C115.332 85.4891 114.542 87.3968 113.136 88.8033C111.729 90.2098 109.821 91 107.832 91Z" fill="#FFFA80"/>
</g>
</g>
<defs>
<filter id="filter0_bd_5_14" x="-3.87427" y="4.32162" width="139.079" height="127.126" filterUnits="userSpaceOnUse" color-interpolation-filters="sRGB">
<feFlood flood-opacity="0" result="BackgroundImageFix"/>
<feGaussianBlur in="BackgroundImage" stdDeviation="4"/>
<feComposite in2="SourceAlpha" operator="in" result="effect1_backgroundBlur_5_14"/>
<feColorMatrix in="SourceAlpha" type="matrix" values="0 0 0 0 0 0 0 0 0 0 0 0 0 0 0 0 0 0 127 0" result="hardAlpha"/>
<feOffset dy="2"/>
<feGaussianBlur stdDeviation="5"/>
<feComposite in2="hardAlpha" operator="out"/>
<feColorMatrix type="matrix" values="0 0 0 0 0.870833 0 0 0 0 0.870833 0 0 0 0 0.870833 0 0 0 0.8 0"/>
<feBlend mode="normal" in2="effect1_backgroundBlur_5_14" result="effect2_dropShadow_5_14"/>
<feBlend mode="normal" in="SourceGraphic" in2="effect2_dropShadow_5_14" result="shape"/>
</filter>
<filter id="filter1_bd_5_14" x="-4.43799" y="-9.97095" width="158.583" height="152.045" filterUnits="userSpaceOnUse" color-interpolation-filters="sRGB">
<feFlood flood-opacity="0" result="BackgroundImageFix"/>
<feGaussianBlur in="BackgroundImage" stdDeviation="4"/>
<feComposite in2="SourceAlpha" operator="in" result="effect1_backgroundBlur_5_14"/>
<feColorMatrix in="SourceAlpha" type="matrix" values="0 0 0 0 0 0 0 0 0 0 0 0 0 0 0 0 0 0 127 0" result="hardAlpha"/>
<feOffset dy="2"/>
<feGaussianBlur stdDeviation="5"/>
<feComposite in2="hardAlpha" operator="out"/>
<feColorMatrix type="matrix" values="0 0 0 0 0.870833 0 0 0 0 0.870833 0 0 0 0 0.870833 0 0 0 0.8 0"/>
<feBlend mode="normal" in2="effect1_backgroundBlur_5_14" result="effect2_dropShadow_5_14"/>
<feBlend mode="normal" in="SourceGraphic" in2="effect2_dropShadow_5_14" result="shape"/>
</filter>
<clipPath id="clip0_5_14">
<rect width="140" height="130" fill="white"/>
</clipPath>
</defs>
</svg>
