<svg width="125" height="150" viewBox="0 0 125 150" fill="none" xmlns="http://www.w3.org/2000/svg">
<path d="M64.4583 40.3333H57.5V32H32.5V40.3333H25.5417C24.0719 40.3333 22.6624 40.9172 21.6231 41.9564C20.5839 42.9957 20 44.4053 20 45.875V109.75C20 112.833 22.5 115.333 25.5417 115.333H64.4167C67.5 115.333 70 112.833 70 109.792V45.875C70 42.8333 67.5 40.3333 64.4583 40.3333Z" fill="#339DFF"/>
<path d="M26 54C26 50.6863 28.6863 48 32 48H58C61.3137 48 64 50.6863 64 54V103C64 104.105 63.1046 105 62 105H28C26.8954 105 26 104.105 26 103V54Z" fill="#F3F3F3"/>
<g filter="url(#filter0_bd_11_75)">
<rect x="69.3268" y="41" width="38.7806" height="68.2029" rx="4" transform="rotate(20 69.3268 41)" fill="white" fill-opacity="0.9" shape-rendering="crispEdges"/>
<rect x="69.3865" y="41.1282" width="38.5806" height="68.0029" rx="3.9" transform="rotate(20 69.3865 41.1282)" stroke="#567AFF" stroke-opacity="0.2" stroke-width="0.2" shape-rendering="crispEdges"/>
</g>
<path d="M89.2449 77.6642L80.5192 74.4883L87.8696 54.2932L62.8262 77.8502L71.5519 81.0261L63.1514 104.106" fill="#FFFA80"/>
<defs>
<filter id="filter0_bd_11_75" x="27.1258" y="22.1258" width="97.517" height="115.102" filterUnits="userSpaceOnUse" color-interpolation-filters="sRGB">
<feFlood flood-opacity="0" result="BackgroundImageFix"/>
<feGaussianBlur in="BackgroundImage" stdDeviation="10"/>
<feComposite in2="SourceAlpha" operator="in" result="effect1_backgroundBlur_11_75"/>
<feColorMatrix in="SourceAlpha" type="matrix" values="0 0 0 0 0 0 0 0 0 0 0 0 0 0 0 0 0 0 127 0" result="hardAlpha"/>
<feOffset dx="1" dy="2"/>
<feGaussianBlur stdDeviation="2.5"/>
<feComposite in2="hardAlpha" operator="out"/>
<feColorMatrix type="matrix" values="0 0 0 0 0.870833 0 0 0 0 0.870833 0 0 0 0 0.870833 0 0 0 0.6 0"/>
<feBlend mode="normal" in2="effect1_backgroundBlur_11_75" result="effect2_dropShadow_11_75"/>
<feBlend mode="normal" in="SourceGraphic" in2="effect2_dropShadow_11_75" result="shape"/>
</filter>
</defs>
</svg>
