<svg width="144" height="160" viewBox="0 0 144 159" fill="none" xmlns="http://www.w3.org/2000/svg">
<path fill-rule="evenodd" clip-rule="evenodd" d="M39.3556 53.3238C34.1344 23.8676 66.2778 18.8264 75.9846 35.9227C76.1555 36.2222 76.3199 36.5283 76.4736 36.8394C76.7753 36.6853 77.0834 36.5431 77.3971 36.4133C95.1142 28.7521 117.88 52.6937 96.5504 73.0107L85.3733 69.1635L83.8173 48.12C83.7849 47.6851 83.6162 47.2671 83.3349 46.9243C83.0536 46.5816 82.6738 46.3314 82.2486 46.2086C81.8234 46.0859 81.3741 46.0969 80.9637 46.2399C80.5532 46.383 80.2021 46.6511 79.9596 47.0066L66.4197 66.8234L65.2083 50.4675C65.1797 50.0879 65.0472 49.7201 64.825 49.4037C64.6028 49.0874 64.2995 48.8346 63.9477 48.6725C63.5959 48.5104 63.209 48.4453 62.8288 48.4841C62.4485 48.5229 62.0894 48.6641 61.79 48.8926L50.8138 57.2679L39.3596 53.3252L39.3556 53.3238Z" fill="#F8E646" stroke="black"/>
<path d="M58.8661 91.2555C48.7489 78.5242 43.0574 67.7419 40.5047 58.8698L50.5466 62.3263C50.8736 62.4392 51.2213 62.471 51.5589 62.419C51.8965 62.3669 52.2135 62.2327 52.4818 62.028L61.135 55.4057L62.4769 73.7572C62.5087 74.1888 62.6755 74.6036 62.9539 74.9435C63.2323 75.2834 63.6083 75.5315 64.0294 75.6529C64.4504 75.7744 64.8954 75.7632 65.3021 75.6209C65.7087 75.4786 66.0566 75.2123 66.2971 74.8593L79.726 55.1842L80.9143 71.415C80.9448 71.8282 81.099 72.2264 81.3571 72.5584C81.6152 72.8903 81.9654 73.1408 82.3625 73.2776L92.4044 76.7341C85.1975 82.2469 74.3686 87.3427 58.8661 91.2555Z" fill="#F8E646" stroke="black"/>
<path d="M35.7347 94.7891L44.5912 108.805C45.9719 111.004 48.6156 111.388 50.4075 109.642C51.9497 108.124 52.3462 105.331 51.3034 103.446L48.1603 97.1977C46.8825 94.6669 47.47 91.403 49.4969 89.7274C51.5384 88.0518 54.3144 88.5405 55.7244 90.827L62.6862 100.968C65.0069 104.284 66.2847 108.735 66.2847 113.186V133.415C66.2847 136.504 64.1844 139 61.5847 139H47.4847C46.06 139 44.7087 138.232 43.8128 136.748L26.0439 110.515C24.7111 108.525 23.9847 106.064 23.9847 103.533V67.6306C23.9847 63.9321 26.6152 60.649 29.8597 60.649C33.1041 60.649 35.7347 63.9321 35.7347 67.6306V94.7891ZM117.985 67.7877V103.533C117.985 106.064 117.265 108.525 115.796 110.515L98.0244 136.748C97.2606 138.232 95.9094 139 94.4847 139H80.3847C77.785 139 75.6847 136.504 75.6847 133.415V113.186C75.6847 108.735 76.9625 104.284 79.2831 100.968L86.1128 90.827C87.655 88.5405 90.4309 88.0518 92.4725 89.7274C94.4994 91.403 95.0869 94.6669 93.8091 97.1977L90.5337 103.446C89.6231 105.331 90.0197 108.124 91.5766 109.642C93.3537 111.388 95.9975 111.004 97.3781 108.805L106.235 94.7891V67.7877C106.235 63.9321 108.864 60.8061 112.11 60.8061C115.356 60.8061 117.985 63.9321 117.985 67.7877Z" fill="#4698F8"/>
</svg>
