<svg width="146" height="143" viewBox="0 0 146 143" fill="none" xmlns="http://www.w3.org/2000/svg">
<rect x="20" y="3" width="104" height="120" rx="4" fill="#3184FF"/>
<path fill-rule="evenodd" clip-rule="evenodd" d="M40.4028 33.3238C35.1816 3.86764 67.3251 -1.17357 77.0319 15.9227C77.2028 16.2222 77.3671 16.5283 77.5209 16.8394C77.8226 16.6853 78.1306 16.5431 78.4443 16.4133C96.1614 8.75214 118.927 32.6937 97.5976 53.0107L86.4205 49.1635L84.8646 28.12C84.8321 27.6851 84.6635 27.2671 84.3822 26.9243C84.1008 26.5816 83.721 26.3314 83.2958 26.2086C82.8706 26.0859 82.4213 26.0969 82.0109 26.2399C81.6005 26.383 81.2494 26.6511 81.0068 27.0066L67.4669 46.8234L66.2556 30.4675C66.2269 30.0879 66.0944 29.7201 65.8722 29.4037C65.6501 29.0874 65.3467 28.8346 64.995 28.6725C64.6432 28.5104 64.2563 28.4453 63.876 28.4841C63.4958 28.5229 63.1366 28.6641 62.8373 28.8926L51.8611 37.2679L40.4069 33.3252L40.4028 33.3238Z" fill="#FFD11C" stroke="#171717" stroke-width="0.5"/>
<path d="M59.9134 71.2555C49.7961 58.5242 44.1046 47.7419 41.5519 38.8698L51.5938 42.3263C51.9209 42.4392 52.2686 42.471 52.6061 42.419C52.9437 42.3669 53.2607 42.2327 53.529 42.028L62.1822 35.4057L63.5241 53.7572C63.5559 54.1888 63.7227 54.6036 64.0011 54.9435C64.2795 55.2834 64.6555 55.5315 65.0766 55.6529C65.4977 55.7744 65.9427 55.7632 66.3493 55.6209C66.7559 55.4786 67.1038 55.2123 67.3443 54.8593L80.7732 35.1842L81.9615 51.415C81.992 51.8282 82.1463 52.2264 82.4044 52.5584C82.6625 52.8903 83.0126 53.1408 83.4097 53.2776L93.4516 56.7341C86.2447 62.2469 75.4159 67.3427 59.9134 71.2555Z" fill="#FFD11C" stroke="#171717" stroke-width="0.5"/>
<g filter="url(#filter0_bd_21_106)">
<path d="M37.5108 75.7891L46.3674 89.8046C47.748 92.0038 50.3917 92.3878 52.1836 90.6424C53.7258 89.1239 54.1224 86.3313 53.0796 84.4462L49.9364 78.1977C48.6586 75.6669 49.2461 72.403 51.273 70.7274C53.3146 69.0518 56.0905 69.5405 57.5005 71.827L64.4624 81.9678C66.783 85.284 68.0608 89.7348 68.0608 94.1856V114.415C68.0608 117.504 65.9605 120 63.3608 120H49.2608C47.8361 120 46.4849 119.232 45.5889 117.748L27.82 91.5151C26.4872 89.5253 25.7608 87.0643 25.7608 84.5335V48.6306C25.7608 44.9321 28.3913 41.649 31.6358 41.649C34.8803 41.649 37.5108 44.9321 37.5108 48.6306V75.7891ZM119.761 48.7877V84.5335C119.761 87.0643 119.041 89.5253 117.572 91.5151L99.8005 117.748C99.0367 119.232 97.6855 120 96.2608 120H82.1608C79.5611 120 77.4608 117.504 77.4608 114.415V94.1856C77.4608 89.7348 78.7386 85.284 81.0592 81.9678L87.8889 71.827C89.4311 69.5405 92.2071 69.0518 94.2486 70.7274C96.2755 72.403 96.863 75.6669 95.5852 78.1977L92.3099 84.4462C91.3992 86.3313 91.7958 89.1239 93.3527 90.6424C95.1299 92.3878 97.7736 92.0038 99.1542 89.8046L108.011 75.7891V48.7877C108.011 44.9321 110.64 41.8061 113.886 41.8061C117.132 41.8061 119.761 44.9321 119.761 48.7877Z" fill="white" fill-opacity="0.8"/>
</g>
<defs>
<filter id="filter0_bd_21_106" x="4.77612" y="21" width="135" height="119" filterUnits="userSpaceOnUse" color-interpolation-filters="sRGB">
<feFlood flood-opacity="0" result="BackgroundImageFix"/>
<feGaussianBlur in="BackgroundImage" stdDeviation="10"/>
<feComposite in2="SourceAlpha" operator="in" result="effect1_backgroundBlur_21_106"/>
<feColorMatrix in="SourceAlpha" type="matrix" values="0 0 0 0 0 0 0 0 0 0 0 0 0 0 0 0 0 0 127 0" result="hardAlpha"/>
<feOffset/>
<feGaussianBlur stdDeviation="10"/>
<feComposite in2="hardAlpha" operator="out"/>
<feColorMatrix type="matrix" values="0 0 0 0 0.27451 0 0 0 0 0.596078 0 0 0 0 0.972549 0 0 0 0.2 0"/>
<feBlend mode="normal" in2="effect1_backgroundBlur_21_106" result="effect2_dropShadow_21_106"/>
<feBlend mode="normal" in="SourceGraphic" in2="effect2_dropShadow_21_106" result="shape"/>
</filter>
</defs>
</svg>
