<svg width="120" height="140" viewBox="0 0 120 140" fill="none" xmlns="http://www.w3.org/2000/svg">
<g filter="url(#filter0_bd_3_19)">
<rect x="10" y="8" width="100" height="120" rx="4" fill="#FCFCFC" fill-opacity="0.6" shape-rendering="crispEdges"/>
</g>
<path d="M31.375 77.3727L38.4414 90.2522C39.543 92.2731 41.6523 92.626 43.082 91.0221C44.3125 89.6266 44.6289 87.0604 43.7969 85.3281L41.2891 79.5861C40.2695 77.2604 40.7383 74.2611 42.3555 72.7213C43.9844 71.1816 46.1992 71.6307 47.3242 73.7318L52.8789 83.0506C54.7305 86.098 55.75 90.188 55.75 94.278V112.867C55.75 115.706 54.0742 118 52 118H40.75C39.6133 118 38.5352 117.294 37.8203 115.931L23.643 91.824C22.5796 89.9955 22 87.734 22 85.4083V52.4157C22 49.017 24.0988 46 26.6875 46C29.2762 46 31.375 49.017 31.375 52.4157V77.3727ZM97 52.56V85.4083C97 87.734 96.4258 89.9955 95.2539 91.824L81.0742 115.931C80.4648 117.294 79.3867 118 78.25 118H67C64.9258 118 63.25 115.706 63.25 112.867V94.278C63.25 90.188 64.2695 86.098 66.1211 83.0506L71.5703 73.7318C72.8008 71.6307 75.0156 71.1816 76.6445 72.7213C78.2617 74.2611 78.7305 77.2604 77.7109 79.5861L75.0977 85.3281C74.3711 87.0604 74.6875 89.6266 75.9297 91.0221C77.3477 92.626 79.457 92.2731 80.5586 90.2522L87.625 77.3727V52.56C87.625 49.017 89.7227 46.1444 92.3125 46.1444C94.9023 46.1444 97 49.017 97 52.56Z" fill="#567AFF"/>
<path fill-rule="evenodd" clip-rule="evenodd" d="M35.8948 44.3488C25.0099 23.534 47.5241 11.414 58.768 21.7654C58.9656 21.9466 59.1599 22.1343 59.3477 22.3286C59.5335 22.1345 59.7269 21.9477 59.9273 21.7687C71.1713 11.414 93.6855 23.534 82.7972 44.3488H73.6315L67.4595 28.9156C67.3317 28.5967 67.1075 28.3258 66.8181 28.1408C66.5287 27.9557 66.1887 27.8658 65.8456 27.8836C65.5026 27.9013 65.1737 28.026 64.905 28.24C64.6363 28.4539 64.4413 28.7466 64.3472 29.077L59.0875 47.4974L54.2889 35.5025C54.1771 35.2243 53.9915 34.9818 53.7521 34.8013C53.5126 34.6208 53.2284 34.5091 52.9302 34.4783C52.6319 34.4474 52.3309 34.4986 52.0596 34.6263C51.7883 34.754 51.557 34.9533 51.3906 35.2028L45.2911 44.3488H35.8981H35.8948Z" fill="#FFFA80"/>
<path d="M59.3475 67.4042C48.7392 60.3924 41.8986 53.7033 37.8575 47.6433H46.1736C46.4445 47.6435 46.7112 47.5769 46.9502 47.4494C47.1892 47.3219 47.393 47.1373 47.5437 46.9122L52.395 39.6336L57.8193 53.1961C57.9471 53.515 58.1713 53.7859 58.4607 53.971C58.7501 54.156 59.0901 54.2459 59.4332 54.2282C59.7762 54.2104 60.1051 54.0858 60.3738 53.8718C60.6425 53.6578 60.8375 53.3651 60.9316 53.0347L66.1946 34.6143L70.9932 46.6092C71.1156 46.9144 71.3265 47.1761 71.5989 47.3604C71.8712 47.5447 72.1925 47.6432 72.5214 47.6433H80.8374C76.7963 53.7033 69.9558 60.3924 59.3475 67.4042Z" fill="#FFFA80"/>
<defs>
<filter id="filter0_bd_3_19" x="0" y="0" width="120" height="140" filterUnits="userSpaceOnUse" color-interpolation-filters="sRGB">
<feFlood flood-opacity="0" result="BackgroundImageFix"/>
<feGaussianBlur in="BackgroundImage" stdDeviation="4"/>
<feComposite in2="SourceAlpha" operator="in" result="effect1_backgroundBlur_3_19"/>
<feColorMatrix in="SourceAlpha" type="matrix" values="0 0 0 0 0 0 0 0 0 0 0 0 0 0 0 0 0 0 127 0" result="hardAlpha"/>
<feOffset dy="2"/>
<feGaussianBlur stdDeviation="5"/>
<feComposite in2="hardAlpha" operator="out"/>
<feColorMatrix type="matrix" values="0 0 0 0 0.870833 0 0 0 0 0.870833 0 0 0 0 0.870833 0 0 0 0.8 0"/>
<feBlend mode="normal" in2="effect1_backgroundBlur_3_19" result="effect2_dropShadow_3_19"/>
<feBlend mode="normal" in="SourceGraphic" in2="effect2_dropShadow_3_19" result="shape"/>
</filter>
</defs>
</svg>
