<svg width="150" height="150" viewBox="0 0 150 150" fill="none" xmlns="http://www.w3.org/2000/svg">
<path fill-rule="evenodd" clip-rule="evenodd" d="M42.3555 47.3239C37.1343 17.8677 69.2778 12.8265 78.9846 29.9227C79.1555 30.2223 79.3198 30.5283 79.4736 30.8394C79.7753 30.6853 80.0833 30.5431 80.397 30.4133C98.1141 22.7522 120.88 46.6937 99.5503 67.0108L88.3732 63.1635L86.8173 42.12C86.7848 41.6852 86.6161 41.2671 86.3348 40.9244C86.0535 40.5816 85.6737 40.3314 85.2485 40.2087C84.8233 40.0859 84.374 40.0969 83.9636 40.24C83.5532 40.3831 83.2021 40.6511 82.9595 41.0066L69.4196 60.8234L68.2083 44.4675C68.1796 44.0879 68.0471 43.7201 67.8249 43.4038C67.6028 43.0875 67.2994 42.8346 66.9477 42.6725C66.5959 42.5105 66.209 42.4453 65.8287 42.4841C65.4485 42.5229 65.0893 42.6641 64.79 42.8926L53.8138 51.2679L42.3596 47.3253L42.3555 47.3239Z" fill="#FFFA80"/>
<path d="M53.7947 51.1556L42.4429 47.2482L68.3074 44.4615L68.3074 44.4613C68.2774 44.0631 68.1383 43.6776 67.9057 43.3464C67.6731 43.0151 67.3557 42.7506 66.9878 42.5811C66.6199 42.4117 66.2152 42.3435 65.8173 42.3841C65.4194 42.4246 65.0432 42.5725 64.7293 42.8121C64.7293 42.8121 64.7293 42.8121 64.7293 42.8121L53.7947 51.1556Z" stroke="#567AFF" stroke-opacity="0.2" stroke-width="0.2"/>
<path d="M61.8661 85.2556C51.7488 72.5242 46.0573 61.7419 43.5046 52.8699L53.5465 56.3264C53.8736 56.4392 54.2213 56.471 54.5588 56.419C54.8964 56.367 55.2134 56.2327 55.4817 56.028L64.1349 49.4057L65.4768 67.7573C65.5086 68.1888 65.6754 68.6036 65.9538 68.9435C66.2322 69.2834 66.6082 69.5315 67.0293 69.653C67.4504 69.7744 67.8954 69.7632 68.302 69.6209C68.7086 69.4786 69.0565 69.2123 69.297 68.8594L82.7259 49.1843L83.9142 65.4151C83.9447 65.8282 84.099 66.2264 84.3571 66.5584C84.6152 66.8904 84.9653 67.1409 85.3624 67.2777L95.4043 70.7342C88.1974 76.2469 77.3686 81.3427 61.8661 85.2556Z" fill="#FFFA80"/>
<path d="M53.5465 56.3264L53.5158 56.4215L53.5157 56.4215L43.6533 53.0268C46.2231 61.8352 51.8858 72.5276 61.9027 85.1423C77.257 81.2606 88.0106 76.2188 95.1941 70.7675L85.3316 67.3728C84.9162 67.2297 84.5496 66.9675 84.2793 66.6198C84.0089 66.2721 83.8471 65.8546 83.8151 65.4211L83.8151 65.421L82.6478 49.477L69.3792 68.9172C69.1268 69.2878 68.7618 69.5669 68.3358 69.716C67.9097 69.8651 67.4439 69.8767 67.0033 69.7496C66.5628 69.6225 66.1692 69.3629 65.8776 69.007C65.5861 68.6509 65.4111 68.2161 65.3777 67.7633L65.3777 67.7632L64.0494 49.5982L55.4817 56.028C55.2134 56.2327 54.8964 56.367 54.5588 56.419C54.2213 56.471 53.8736 56.4392 53.5465 56.3264ZM53.5465 56.3264L43.6192 52.9093L53.5465 56.3264Z" stroke="#567AFF" stroke-opacity="0.2" stroke-width="0.2"/>
<path d="M38.7347 88.7891L47.5912 102.805C48.9719 105.004 51.6156 105.388 53.4075 103.642C54.9497 102.124 55.3462 99.3313 54.3034 97.4462L51.1603 91.1977C49.8825 88.6669 50.47 85.403 52.4969 83.7274C54.5384 82.0518 57.3144 82.5405 58.7244 84.827L65.6862 94.9678C68.0069 98.284 69.2847 102.735 69.2847 107.186V127.415C69.2847 130.504 67.1844 133 64.5847 133H50.4847C49.06 133 47.7087 132.232 46.8128 130.748L29.0439 104.515C27.7111 102.525 26.9847 100.064 26.9847 97.5335V61.6306C26.9847 57.9321 29.6152 54.649 32.8597 54.649C36.1041 54.649 38.7347 57.9321 38.7347 61.6306V88.7891ZM120.985 61.7877V97.5335C120.985 100.064 120.265 102.525 118.796 104.515L101.024 130.748C100.261 132.232 98.9094 133 97.4847 133H83.3847C80.785 133 78.6847 130.504 78.6847 127.415V107.186C78.6847 102.735 79.9625 98.284 82.2831 94.9678L89.1128 84.827C90.655 82.5405 93.4309 82.0518 95.4725 83.7274C97.4994 85.403 98.0869 88.6669 96.8091 91.1977L93.5337 97.4462C92.6231 99.3313 93.0197 102.124 94.5766 103.642C96.3537 105.388 98.9975 105.004 100.378 102.805L109.235 88.7891V61.7877C109.235 57.9321 111.864 54.8061 115.11 54.8061C118.356 54.8061 120.985 57.9321 120.985 61.7877Z" fill="#339DFF"/>
</svg>
