<svg width="100" height="130" viewBox="0 0 100 130" fill="none" xmlns="http://www.w3.org/2000/svg">
<g clip-path="url(#clip0_5_15)">
<g filter="url(#filter0_bd_5_15)">
<rect width="72.0716" height="63.0655" rx="4" transform="matrix(0.975482 -0.215518 0.233625 0.971259 6.03882 17.398)" fill="#FCFCFC" fill-opacity="0.6" shape-rendering="crispEdges"/>
</g>
<path fill-rule="evenodd" clip-rule="evenodd" d="M25.8637 46.9971C10.04 29.0999 29.8432 12.2798 43.5766 19.8871C43.8177 20.02 44.0572 20.1601 44.2915 20.3081C44.4329 20.0775 44.5836 19.8523 44.7433 19.6332C53.6255 7.03528 79.1078 13.8689 73.034 36.595L63.8159 38.6278L53.9929 24.9367C53.7897 24.6539 53.5007 24.4392 53.1663 24.3228C52.8319 24.2064 52.4688 24.1941 52.128 24.2875C51.7872 24.381 51.4856 24.5755 51.2655 24.8439C51.0454 25.1123 50.9178 25.4412 50.9006 25.7844L49.9265 44.9258L42.2903 34.2853C42.1127 34.0386 41.8692 33.8431 41.5861 33.7201C41.303 33.5971 40.991 33.5511 40.6838 33.5872C40.3766 33.6232 40.0859 33.7399 39.8429 33.9247C39.6 34.1095 39.4141 34.3553 39.3052 34.6356L35.3137 44.9132L25.867 46.9964L25.8637 46.9971Z" fill="#FFFA80"/>
<path d="M54.9534 64.7192C42.758 60.2571 34.3899 55.2801 28.9561 50.2977L37.238 48.4713C37.5078 48.412 37.758 48.2889 37.9663 48.1129C38.1747 47.9369 38.3348 47.7134 38.4324 47.4622L41.571 39.3465L50.1272 51.2924C50.3286 51.5732 50.615 51.7863 50.9462 51.902C51.2775 52.0177 51.637 52.0302 51.9745 51.9376C52.312 51.845 52.6105 51.6521 52.8284 51.3858C53.0462 51.1195 53.1724 50.7932 53.1893 50.4525L54.1467 31.454L61.7151 42.0188C61.908 42.2876 62.1789 42.4947 62.493 42.6134C62.8071 42.7322 63.15 42.7571 63.4775 42.6849L71.7594 40.8586C69.1442 47.616 63.8874 55.5976 54.9534 64.7192Z" fill="#FFFA80"/>
<path d="M17.75 80.8016L25.8528 95.7642C27.1159 98.112 29.5347 98.5219 31.1741 96.6586C32.585 95.0375 32.9478 92.0561 31.9937 90.0437L29.1181 83.373C27.9491 80.6712 28.4866 77.1868 30.3409 75.398C32.2087 73.6092 34.7484 74.1309 36.0384 76.5719L42.4078 87.3978C44.5309 90.9381 45.7 95.6896 45.7 100.441V122.037C45.7 125.335 43.7784 128 41.4 128H28.5C27.1966 128 25.9603 127.18 25.1406 125.596L8.88394 97.5902C7.66462 95.466 7 92.8387 7 90.1369V51.8082C7 47.8598 9.40666 44.3549 12.375 44.3549C15.3433 44.3549 17.75 47.8598 17.75 51.8082V80.8016ZM93 51.9759V90.1369C93 92.8387 92.3416 95.466 90.9978 97.5902L74.7384 125.596C74.0397 127.18 72.8034 128 71.5 128H58.6C56.2216 128 54.3 125.335 54.3 122.037V100.441C54.3 95.6896 55.4691 90.9381 57.5922 87.3978L63.8406 76.5719C65.2516 74.1309 67.7912 73.6092 69.6591 75.398C71.5134 77.1868 72.0509 80.6712 70.8819 83.373L67.8853 90.0437C67.0522 92.0561 67.415 95.0375 68.8394 96.6586C70.4653 98.5219 72.8841 98.112 74.1472 95.7642L82.25 80.8016V51.9759C82.25 47.8598 84.6553 44.5226 87.625 44.5226C90.5947 44.5226 93 47.8598 93 51.9759Z" fill="#567AFF"/>
</g>
<defs>
<filter id="filter0_bd_5_15" x="-3.13794" y="-5.36798" width="103.392" height="95.2522" filterUnits="userSpaceOnUse" color-interpolation-filters="sRGB">
<feFlood flood-opacity="0" result="BackgroundImageFix"/>
<feGaussianBlur in="BackgroundImage" stdDeviation="4"/>
<feComposite in2="SourceAlpha" operator="in" result="effect1_backgroundBlur_5_15"/>
<feColorMatrix in="SourceAlpha" type="matrix" values="0 0 0 0 0 0 0 0 0 0 0 0 0 0 0 0 0 0 127 0" result="hardAlpha"/>
<feOffset dy="2"/>
<feGaussianBlur stdDeviation="5"/>
<feComposite in2="hardAlpha" operator="out"/>
<feColorMatrix type="matrix" values="0 0 0 0 0.870833 0 0 0 0 0.870833 0 0 0 0 0.870833 0 0 0 0.8 0"/>
<feBlend mode="normal" in2="effect1_backgroundBlur_5_15" result="effect2_dropShadow_5_15"/>
<feBlend mode="normal" in="SourceGraphic" in2="effect2_dropShadow_5_15" result="shape"/>
</filter>
<clipPath id="clip0_5_15">
<rect width="100" height="130" fill="white"/>
</clipPath>
</defs>
</svg>
