<svg width="137" height="160" viewBox="0 0 137 127" fill="none" xmlns="http://www.w3.org/2000/svg">
<rect x="20" y="30.2461" width="75.7557" height="89.0132" rx="4" fill="#4698F8"/>
<g filter="url(#filter0_bd_5_5)">
<rect width="70.6498" height="84.7009" rx="4" transform="matrix(0.939826 0.341653 -0.342387 0.939559 50.5581 20)" fill="white" fill-opacity="0.9" shape-rendering="crispEdges"/>
<rect x="0.0597439" y="0.128121" width="70.4498" height="84.5009" rx="3.9" transform="matrix(0.939826 0.341653 -0.342387 0.939559 50.6056 19.9873)" stroke="#567AFF" stroke-opacity="0.2" stroke-width="0.2" shape-rendering="crispEdges"/>
</g>
<path d="M72.261 113.593C75.3705 114.724 78.8022 114.574 81.8013 113.177C84.8003 111.78 87.121 109.251 88.2527 106.145C89.3845 103.04 89.2347 99.6119 87.8362 96.6165C86.4377 93.6211 83.9052 91.3033 80.7957 90.1729C77.6861 89.0425 74.2544 89.1921 71.2554 90.5889C68.2563 91.9857 65.9357 94.5152 64.8039 97.6209C63.6721 100.727 63.8219 104.154 65.2204 107.15C66.6189 110.145 69.1515 112.463 72.261 113.593Z" fill="#F8E646" stroke="#171717"/>
<path d="M67.2824 127.255L73.6762 134L81.164 113.453C81.164 113.453 77.8496 115.625 72.261 113.593C66.6723 111.562 65.5115 107.824 65.5115 107.824L58.0437 128.317L67.2824 127.255Z" fill="#F8E646" stroke="#171717" stroke-linecap="round" stroke-linejoin="round"/>
<line x1="1" y1="-1" x2="46.753" y2="-1" transform="matrix(0.939826 0.341653 -0.342387 0.939559 55.1039 36.8031)" stroke="#171717" stroke-width="2" stroke-linecap="round"/>
<line x1="1" y1="-1" x2="31.8891" y2="-1" transform="matrix(0.939826 0.341653 -0.342387 0.939559 52.0886 44.8355)" stroke="#171717" stroke-width="2" stroke-linecap="round"/>
<line x1="1" y1="-1" x2="22.4061" y2="-1" transform="matrix(0.939826 0.341653 -0.342387 0.939559 49.0449 52.9476)" stroke="#171717" stroke-width="2" stroke-linecap="round"/>
<defs>
<filter id="filter0_bd_5_5" x="2.68439" y="1.12476" width="133.146" height="141.47" filterUnits="userSpaceOnUse" color-interpolation-filters="sRGB">
<feFlood flood-opacity="0" result="BackgroundImageFix"/>
<feGaussianBlur in="BackgroundImage" stdDeviation="10"/>
<feComposite in2="SourceAlpha" operator="in" result="effect1_backgroundBlur_5_5"/>
<feColorMatrix in="SourceAlpha" type="matrix" values="0 0 0 0 0 0 0 0 0 0 0 0 0 0 0 0 0 0 127 0" result="hardAlpha"/>
<feOffset dx="1" dy="2"/>
<feGaussianBlur stdDeviation="2.5"/>
<feComposite in2="hardAlpha" operator="out"/>
<feColorMatrix type="matrix" values="0 0 0 0 0.870833 0 0 0 0 0.870833 0 0 0 0 0.870833 0 0 0 0.6 0"/>
<feBlend mode="normal" in2="effect1_backgroundBlur_5_5" result="effect2_dropShadow_5_5"/>
<feBlend mode="normal" in="SourceGraphic" in2="effect2_dropShadow_5_5" result="shape"/>
</filter>
</defs>
</svg>
