<svg width="100" height="130" viewBox="0 0 100 130" fill="none" xmlns="http://www.w3.org/2000/svg">
<g clip-path="url(#clip0_5_5)">
<g filter="url(#filter0_bd_5_5)">
<rect x="5.88367" y="20.5359" width="70.6599" height="84.7918" rx="4" fill="#FCFCFC" fill-opacity="0.6" shape-rendering="crispEdges"/>
</g>
<rect x="29.4813" y="11" width="75.7557" height="89.1214" rx="4" transform="rotate(20 29.4813 11)" fill="#567AFF"/>
<path d="M54.2173 109.716C57.3268 110.848 60.7586 110.698 63.7576 109.3C66.7567 107.901 69.0773 105.369 70.2091 102.259C71.3409 99.1496 71.191 95.7179 69.7926 92.7188C68.3941 89.7198 65.8615 87.3991 62.752 86.2673C59.6425 85.1356 56.2108 85.2854 53.2117 86.6839C50.2127 88.0824 47.892 90.6149 46.7602 93.7244C45.6285 96.8339 45.7783 100.266 47.1768 103.265C48.5753 106.264 51.1078 108.584 54.2173 109.716Z" stroke="#171717" stroke-width="2.5"/>
<path d="M49.2388 123.395L55.6326 130.148L63.1204 109.575C63.1204 109.575 59.806 111.75 54.2173 109.716C48.6287 107.682 47.4679 103.94 47.4679 103.94L40 124.458L49.2388 123.395Z" fill="white" fill-opacity="0.8" stroke="#171717" stroke-width="2.5" stroke-linecap="round" stroke-linejoin="round"/>
<line x1="38.342" y1="27.235" x2="81.3421" y2="42.8857" stroke="#171717" stroke-width="2" stroke-linecap="round"/>
<line x1="35.3267" y1="35.2772" x2="64.3573" y2="45.8435" stroke="#171717" stroke-width="2" stroke-linecap="round"/>
<line x1="32.2829" y1="43.3991" x2="52.4012" y2="50.7215" stroke="#171717" stroke-width="2" stroke-linecap="round"/>
</g>
<defs>
<filter id="filter0_bd_5_5" x="-4.11633" y="12.5359" width="90.6599" height="104.792" filterUnits="userSpaceOnUse" color-interpolation-filters="sRGB">
<feFlood flood-opacity="0" result="BackgroundImageFix"/>
<feGaussianBlur in="BackgroundImage" stdDeviation="4"/>
<feComposite in2="SourceAlpha" operator="in" result="effect1_backgroundBlur_5_5"/>
<feColorMatrix in="SourceAlpha" type="matrix" values="0 0 0 0 0 0 0 0 0 0 0 0 0 0 0 0 0 0 127 0" result="hardAlpha"/>
<feOffset dy="2"/>
<feGaussianBlur stdDeviation="5"/>
<feComposite in2="hardAlpha" operator="out"/>
<feColorMatrix type="matrix" values="0 0 0 0 0.870833 0 0 0 0 0.870833 0 0 0 0 0.870833 0 0 0 0.8 0"/>
<feBlend mode="normal" in2="effect1_backgroundBlur_5_5" result="effect2_dropShadow_5_5"/>
<feBlend mode="normal" in="SourceGraphic" in2="effect2_dropShadow_5_5" result="shape"/>
</filter>
<clipPath id="clip0_5_5">
<rect width="100" height="130" fill="white"/>
</clipPath>
</defs>
</svg>
