<svg width="137" height="153" viewBox="0 0 137 153" fill="none" xmlns="http://www.w3.org/2000/svg">
<rect x="20" y="29.2461" width="75.7557" height="89.0132" rx="4" fill="#3184FF"/>
<g filter="url(#filter0_bd_21_97)">
<rect width="70.6498" height="84.7009" rx="4" transform="matrix(0.939826 0.341653 -0.342387 0.939559 50.5581 19)" fill="white" fill-opacity="0.8" shape-rendering="crispEdges"/>
</g>
<path d="M72.261 112.593C75.3705 113.724 78.8022 113.574 81.8013 112.177C84.8003 110.78 87.121 108.251 88.2527 105.145C89.3845 102.04 89.2347 98.6119 87.8362 95.6165C86.4377 92.6211 83.9052 90.3033 80.7957 89.1729C77.6861 88.0425 74.2544 88.1921 71.2554 89.5889C68.2563 90.9857 65.9357 93.5152 64.8039 96.6209C63.6721 99.7267 63.8219 103.154 65.2204 106.15C66.6189 109.145 69.1515 111.463 72.261 112.593Z" fill="#FFD11C" stroke="#171717" stroke-width="0.5"/>
<path d="M67.2824 126.255L73.6762 133L81.164 112.453C81.164 112.453 77.8496 114.625 72.261 112.593C66.6723 110.562 65.5115 106.824 65.5115 106.824L58.0437 127.317L67.2824 126.255Z" fill="#FFD11C" stroke="#171717" stroke-width="0.5" stroke-linecap="round" stroke-linejoin="round"/>
<line x1="1" y1="-1" x2="46.753" y2="-1" transform="matrix(0.939826 0.341653 -0.342387 0.939559 55.1039 35.8031)" stroke="#171717" stroke-width="2" stroke-linecap="round"/>
<line x1="1" y1="-1" x2="31.8891" y2="-1" transform="matrix(0.939826 0.341653 -0.342387 0.939559 52.0886 43.8356)" stroke="#171717" stroke-width="2" stroke-linecap="round"/>
<line x1="1" y1="-1" x2="22.4061" y2="-1" transform="matrix(0.939826 0.341653 -0.342387 0.939559 49.0449 51.9476)" stroke="#171717" stroke-width="2" stroke-linecap="round"/>
<defs>
<filter id="filter0_bd_21_97" x="2.68439" y="0.124756" width="133.146" height="141.47" filterUnits="userSpaceOnUse" color-interpolation-filters="sRGB">
<feFlood flood-opacity="0" result="BackgroundImageFix"/>
<feGaussianBlur in="BackgroundImage" stdDeviation="10"/>
<feComposite in2="SourceAlpha" operator="in" result="effect1_backgroundBlur_21_97"/>
<feColorMatrix in="SourceAlpha" type="matrix" values="0 0 0 0 0 0 0 0 0 0 0 0 0 0 0 0 0 0 127 0" result="hardAlpha"/>
<feOffset/>
<feGaussianBlur stdDeviation="10"/>
<feComposite in2="hardAlpha" operator="out"/>
<feColorMatrix type="matrix" values="0 0 0 0 0.27451 0 0 0 0 0.596078 0 0 0 0 0.972549 0 0 0 0.2 0"/>
<feBlend mode="normal" in2="effect1_backgroundBlur_21_97" result="effect2_dropShadow_21_97"/>
<feBlend mode="normal" in="SourceGraphic" in2="effect2_dropShadow_21_97" result="shape"/>
</filter>
</defs>
</svg>
